<svg width="167" height="167" viewBox="0 0 167 167" fill="none" xmlns="http://www.w3.org/2000/svg">
<path d="M167 127.722H0V127.805H167V127.722Z" fill="#EBEBEB"/>
<path d="M150.267 133.096H139.205V133.179H150.267V133.096Z" fill="#EBEBEB"/>
<path d="M110.627 134.004H107.725V134.088H110.627V134.004Z" fill="#EBEBEB"/>
<path d="M138.871 129.996H132.461V130.08H138.871V129.996Z" fill="#EBEBEB"/>
<path d="M31.9471 130.557H17.5216V130.641H31.9471V130.557Z" fill="#EBEBEB"/>
<path d="M37.0373 130.557H34.923V130.641H37.0373V130.557Z" fill="#EBEBEB"/>
<path d="M75.2001 131.967H43.911V132.05H75.2001V131.967Z" fill="#EBEBEB"/>
<path d="M79.158 112.825H14.6659C14.1607 112.824 13.6765 112.623 13.3195 112.265C12.9626 111.908 12.7621 111.423 12.7621 110.918V20.2604C12.7665 19.7581 12.9689 19.2778 13.3254 18.9238C13.6819 18.5699 14.1636 18.3709 14.6659 18.37H79.158C79.6638 18.37 80.1489 18.5709 80.5066 18.9286C80.8642 19.2862 81.0651 19.7713 81.0651 20.2771V110.918C81.0651 111.424 80.8642 111.909 80.5066 112.267C80.1489 112.624 79.6638 112.825 79.158 112.825ZM14.6659 18.4368C14.1829 18.4377 13.7199 18.6302 13.3786 18.9721C13.0373 19.314 12.8456 19.7774 12.8456 20.2604V110.918C12.8456 111.401 13.0373 111.864 13.3786 112.206C13.7199 112.548 14.1829 112.741 14.6659 112.742H79.158C79.6414 112.741 80.1047 112.548 80.4465 112.207C80.7883 111.865 80.9808 111.401 80.9816 110.918V20.2604C80.9808 19.777 80.7883 19.3137 80.4465 18.9719C80.1047 18.6301 79.6414 18.4377 79.158 18.4368H14.6659Z" fill="#EBEBEB"/>
<path d="M151.406 112.825H86.9101C86.4046 112.824 85.92 112.623 85.5626 112.266C85.2051 111.908 85.0039 111.424 85.003 110.918V20.2604C85.0083 19.7578 85.2114 19.2775 85.5684 18.9236C85.9254 18.5698 86.4075 18.3708 86.9101 18.37H151.406C151.907 18.3717 152.388 18.5711 152.744 18.925C153.1 19.2789 153.302 19.7587 153.306 20.2604V110.918C153.306 111.423 153.106 111.907 152.75 112.264C152.394 112.622 151.91 112.823 151.406 112.825ZM86.9101 18.4368C86.4267 18.4377 85.9634 18.6301 85.6216 18.9719C85.2798 19.3137 85.0874 19.777 85.0865 20.2604V110.918C85.0874 111.401 85.2798 111.865 85.6216 112.207C85.9634 112.548 86.4267 112.741 86.9101 112.742H151.406C151.889 112.741 152.352 112.548 152.694 112.207C153.036 111.865 153.228 111.401 153.229 110.918V20.2604C153.228 19.777 153.036 19.3137 152.694 18.9719C152.352 18.6301 151.889 18.4377 151.406 18.4368H86.9101Z" fill="#EBEBEB"/>
<path d="M56.0452 34.5256H32.2477V115.257H56.0452V34.5256Z" fill="#FAFAFA"/>
<path d="M52.5015 34.5256H51.112L42.8121 115.257H44.2016L52.5015 34.5256Z" fill="#F5F5F5"/>
<path d="M55.6244 34.8395H32.0941V35.5509H55.6244V34.8395Z" fill="#E0E0E0"/>
<path d="M55.6244 114.552H32.0941V116.075H55.6244V114.552Z" fill="#EBEBEB"/>
<path d="M55.2336 116.008H32.9992V116.075H55.2336V116.008Z" fill="#EBEBEB"/>
<path d="M32.9992 34.8395H55.2336V116.008H56.5662V33.8408H31.6665V116.008H32.9992V34.8395Z" fill="#EBEBEB"/>
<path d="M82.5281 34.5256H58.7306V115.257H82.5281V34.5256Z" fill="#FAFAFA"/>
<path d="M75.9249 34.5256H68.3397L60.0398 115.257H67.625L75.9249 34.5256Z" fill="#F5F5F5"/>
<path d="M82.7752 34.8395H58.5769V35.5509H82.7752V34.8395Z" fill="#E0E0E0"/>
<path d="M82.7752 114.552H58.5769V116.075H82.7752V114.552Z" fill="#EBEBEB"/>
<path d="M81.7164 116.008H59.4821V116.075H81.7164V116.008Z" fill="#EBEBEB"/>
<path d="M59.4821 34.8395H81.7165V116.008H83.0458V33.8408H58.1494V116.008H59.4821V34.8395Z" fill="#EBEBEB"/>
<path d="M108.34 34.5256H85.2101V115.257H108.34V34.5256Z" fill="#FAFAFA"/>
<path d="M98.3162 34.5256H96.9268L88.6269 115.257H90.0163L98.3162 34.5256Z" fill="#F5F5F5"/>
<path d="M108.59 34.8395H85.0598V35.5509H108.59V34.8395Z" fill="#E0E0E0"/>
<path d="M108.59 114.552H85.0598V116.075H108.59V114.552Z" fill="#EBEBEB"/>
<path d="M108.199 116.008H85.9649V116.075H108.199V116.008Z" fill="#EBEBEB"/>
<path d="M85.9649 34.8395H108.196V116.008H109.529V33.8408H84.6323V116.008H85.9649V34.8395Z" fill="#EBEBEB"/>
<path d="M135.49 34.5256H111.693V115.257H135.49V34.5256Z" fill="#FAFAFA"/>
<path d="M133.162 34.5256H125.577L117.274 115.257H124.863L133.162 34.5256Z" fill="#F5F5F5"/>
<path d="M135.07 34.8395H111.539V35.5509H135.07V34.8395Z" fill="#E0E0E0"/>
<path d="M135.07 114.552H111.539V116.075H135.07V114.552Z" fill="#EBEBEB"/>
<path d="M112.444 34.8395H134.679V116.008H136.011V33.8408H111.115V116.008H112.444V34.8395Z" fill="#EBEBEB"/>
<path d="M134.679 116.008H112.444V116.075H134.679V116.008Z" fill="#EBEBEB"/>
<path d="M48.6805 96.683H38.3499V114.549H48.6805V96.683Z" fill="#EBEBEB"/>
<path d="M46.6965 94.1847V98.667H45.8849H41.1488H40.3338V94.1847H46.6965Z" fill="#EBEBEB"/>
<path d="M46.6965 98.6669H48.0192V97.3442H46.6965V98.6669Z" fill="#FAFAFA"/>
<path d="M44.1381 98.6669H45.4607V97.3442H44.1381V98.6669Z" fill="#FAFAFA"/>
<path d="M41.5763 98.6669H42.899V97.3442H41.5763V98.6669Z" fill="#FAFAFA"/>
<path d="M39.0145 98.6669H40.3372V97.3442H39.0145V98.6669Z" fill="#F0F0F0"/>
<path d="M46.6965 101.072H48.0192V99.7491H46.6965V101.072Z" fill="#F0F0F0"/>
<path d="M44.1381 101.072H45.4607V99.7491H44.1381V101.072Z" fill="#F0F0F0"/>
<path d="M41.5763 101.072H42.899V99.7491H41.5763V101.072Z" fill="#FAFAFA"/>
<path d="M39.0145 101.072H40.3372V99.7491H39.0145V101.072Z" fill="#FAFAFA"/>
<path d="M46.6965 103.473H48.0192V102.151H46.6965V103.473Z" fill="#F0F0F0"/>
<path d="M44.1381 103.473H45.4607V102.151H44.1381V103.473Z" fill="#FAFAFA"/>
<path d="M41.5763 103.473H42.899V102.151H41.5763V103.473Z" fill="#FAFAFA"/>
<path d="M44.1381 96.5895H45.4607V95.2668H44.1381V96.5895Z" fill="#FAFAFA"/>
<path d="M41.5763 96.5895H42.899V95.2668H41.5763V96.5895Z" fill="#F0F0F0"/>
<path d="M39.0145 103.473H40.3372V102.151H39.0145V103.473Z" fill="#F0F0F0"/>
<path d="M46.6965 105.875H48.0192V104.552H46.6965V105.875Z" fill="#FAFAFA"/>
<path d="M44.1381 105.875H45.4607V104.552H44.1381V105.875Z" fill="#F0F0F0"/>
<path d="M41.5763 105.875H42.899V104.552H41.5763V105.875Z" fill="#F0F0F0"/>
<path d="M39.0145 105.875H40.3372V104.552H39.0145V105.875Z" fill="#FAFAFA"/>
<path d="M46.6965 108.279H48.0192V106.957H46.6965V108.279Z" fill="#F0F0F0"/>
<path d="M44.1381 108.279H45.4607V106.957H44.1381V108.279Z" fill="#FAFAFA"/>
<path d="M41.5763 108.279H42.899V106.957H41.5763V108.279Z" fill="#FAFAFA"/>
<path d="M39.0145 108.279H40.3372V106.957H39.0145V108.279Z" fill="#F0F0F0"/>
<path d="M46.6965 110.681H48.0192V109.358H46.6965V110.681Z" fill="#F0F0F0"/>
<path d="M44.1381 110.681H45.4607V109.358H44.1381V110.681Z" fill="#FAFAFA"/>
<path d="M41.5763 110.681H42.899V109.358H41.5763V110.681Z" fill="#F0F0F0"/>
<path d="M39.0145 110.681H40.3372V109.358H39.0145V110.681Z" fill="#FAFAFA"/>
<path d="M46.6965 113.089H48.0192V111.766H46.6965V113.089Z" fill="#FAFAFA"/>
<path d="M44.1381 113.089H45.4607V111.766H44.1381V113.089Z" fill="#FAFAFA"/>
<path d="M41.5763 113.089H42.899V111.766H41.5763V113.089Z" fill="#F0F0F0"/>
<path d="M39.0145 113.089H40.3372V111.766H39.0145V113.089Z" fill="#F0F0F0"/>
<path d="M106.927 96.683H96.5961V114.549H106.927V96.683Z" fill="#EBEBEB"/>
<path d="M104.946 94.1847V98.667H104.131H99.3951H98.5801V94.1847H104.946Z" fill="#EBEBEB"/>
<path d="M104.943 98.6669H106.265V97.3442H104.943V98.6669Z" fill="#FAFAFA"/>
<path d="M102.381 98.6669H103.704V97.3442H102.381V98.6669Z" fill="#FAFAFA"/>
<path d="M99.8226 98.6669H101.145V97.3442H99.8226V98.6669Z" fill="#FAFAFA"/>
<path d="M97.2608 98.6669H98.5834V97.3442H97.2608V98.6669Z" fill="#F0F0F0"/>
<path d="M104.943 101.072H106.265V99.7491H104.943V101.072Z" fill="#F0F0F0"/>
<path d="M102.381 101.072H103.704V99.7491H102.381V101.072Z" fill="#F0F0F0"/>
<path d="M99.8226 101.072H101.145V99.7491H99.8226V101.072Z" fill="#FAFAFA"/>
<path d="M97.2608 101.072H98.5834V99.7491H97.2608V101.072Z" fill="#FAFAFA"/>
<path d="M104.943 103.473H106.265V102.151H104.943V103.473Z" fill="#F0F0F0"/>
<path d="M102.381 103.473H103.704V102.151H102.381V103.473Z" fill="#FAFAFA"/>
<path d="M99.8226 103.473H101.145V102.151H99.8226V103.473Z" fill="#FAFAFA"/>
<path d="M102.381 96.5895H103.704V95.2668H102.381V96.5895Z" fill="#FAFAFA"/>
<path d="M99.8226 96.5895H101.145V95.2668H99.8226V96.5895Z" fill="#F0F0F0"/>
<path d="M97.2608 103.473H98.5834V102.151H97.2608V103.473Z" fill="#F0F0F0"/>
<path d="M104.943 105.875H106.265V104.552H104.943V105.875Z" fill="#FAFAFA"/>
<path d="M102.381 105.875H103.704V104.552H102.381V105.875Z" fill="#F0F0F0"/>
<path d="M99.8226 105.875H101.145V104.552H99.8226V105.875Z" fill="#F0F0F0"/>
<path d="M97.2608 105.875H98.5834V104.552H97.2608V105.875Z" fill="#FAFAFA"/>
<path d="M104.943 108.279H106.265V106.957H104.943V108.279Z" fill="#F0F0F0"/>
<path d="M102.381 108.279H103.704V106.957H102.381V108.279Z" fill="#FAFAFA"/>
<path d="M99.8226 108.279H101.145V106.957H99.8226V108.279Z" fill="#FAFAFA"/>
<path d="M97.2608 108.279H98.5834V106.957H97.2608V108.279Z" fill="#F0F0F0"/>
<path d="M104.943 110.681H106.265V109.358H104.943V110.681Z" fill="#F0F0F0"/>
<path d="M102.381 110.681H103.704V109.358H102.381V110.681Z" fill="#FAFAFA"/>
<path d="M99.8226 110.681H101.145V109.358H99.8226V110.681Z" fill="#F0F0F0"/>
<path d="M97.2608 110.681H98.5834V109.358H97.2608V110.681Z" fill="#FAFAFA"/>
<path d="M104.943 113.089H106.265V111.766H104.943V113.089Z" fill="#FAFAFA"/>
<path d="M102.381 113.089H103.704V111.766H102.381V113.089Z" fill="#FAFAFA"/>
<path d="M99.8226 113.089H101.145V111.766H99.8226V113.089Z" fill="#F0F0F0"/>
<path d="M97.2608 113.089H98.5834V111.766H97.2608V113.089Z" fill="#F0F0F0"/>
<path d="M123.34 103.189H114.084V114.545H123.34V103.189Z" fill="#F0F0F0"/>
<path d="M114.889 104.448H117.04H117.635H118.226V105.634H117.635H117.04H114.889V104.448Z" fill="#E6E6E6"/>
<path d="M114.889 106.746H117.04H117.635H118.226V107.929H117.635H117.04H114.889V106.746Z" fill="#FAFAFA"/>
<path d="M114.889 109.041H117.04H117.635H118.226V110.223H117.635H117.04H114.889V109.041Z" fill="#E6E6E6"/>
<path d="M114.889 111.336H117.04H117.959H118.226V112.521H117.959H117.04H114.889V111.336Z" fill="#FAFAFA"/>
<path d="M119.195 104.448H121.349H121.94H122.531V105.634H121.94H121.349H119.195V104.448Z" fill="#FAFAFA"/>
<path d="M119.195 106.746H121.349H122.184H122.531V107.929H122.184H121.349H119.195V106.746Z" fill="#FAFAFA"/>
<path d="M119.195 109.041H121.349H121.94H122.531V110.223H121.94H121.349H119.195V109.041Z" fill="#E6E6E6"/>
<path d="M119.195 111.336H121.349H121.94H122.531V112.521H121.94H121.349H119.195V111.336Z" fill="#FAFAFA"/>
<path d="M79.2014 107.491H70.7913V114.549H79.2014V107.491Z" fill="#F0F0F0"/>
<path d="M77.5849 109.448H78.6603V108.373H77.5849V109.448Z" fill="#FAFAFA"/>
<path d="M75.4973 109.448H76.5728V108.373H75.4973V109.448Z" fill="#FAFAFA"/>
<path d="M73.4165 109.448H74.492V108.373H73.4165V109.448Z" fill="#FAFAFA"/>
<path d="M71.329 109.448H72.4045V108.373H71.329V109.448Z" fill="#FAFAFA"/>
<path d="M77.5849 111.402H78.6603V110.327H77.5849V111.402Z" fill="#FAFAFA"/>
<path d="M75.4973 111.402H76.5728V110.327H75.4973V111.402Z" fill="#FAFAFA"/>
<path d="M73.4165 111.402H74.492V110.327H73.4165V111.402Z" fill="#FAFAFA"/>
<path d="M71.329 111.402H72.4045V110.327H71.329V111.402Z" fill="#E6E6E6"/>
<path d="M77.5849 113.356H78.6603V112.281H77.5849V113.356Z" fill="#E6E6E6"/>
<path d="M75.4973 113.356H76.5728V112.281H75.4973V113.356Z" fill="#E6E6E6"/>
<path d="M73.4165 113.356H74.492V112.281H73.4165V113.356Z" fill="#FAFAFA"/>
<path d="M71.329 113.356H72.4045V112.281H71.329V113.356Z" fill="#E6E6E6"/>
<path d="M95.7144 107.491H87.3043V114.549H95.7144V107.491Z" fill="#F0F0F0"/>
<path d="M94.1012 109.448H95.1766V108.373H94.1012V109.448Z" fill="#FAFAFA"/>
<path d="M92.0137 109.448H93.0891V108.373H92.0137V109.448Z" fill="#FAFAFA"/>
<path d="M89.9262 109.448H91.0016V108.373H89.9262V109.448Z" fill="#FAFAFA"/>
<path d="M87.8454 109.448H88.9208V108.373H87.8454V109.448Z" fill="#FAFAFA"/>
<path d="M94.1012 111.402H95.1766V110.327H94.1012V111.402Z" fill="#FAFAFA"/>
<path d="M92.0137 111.402H93.0891V110.327H92.0137V111.402Z" fill="#FAFAFA"/>
<path d="M89.9262 111.402H91.0016V110.327H89.9262V111.402Z" fill="#FAFAFA"/>
<path d="M87.8454 111.402H88.9208V110.327H87.8454V111.402Z" fill="#E6E6E6"/>
<path d="M94.1012 113.356H95.1766V112.281H94.1012V113.356Z" fill="#E6E6E6"/>
<path d="M92.0137 113.356H93.0891V112.281H92.0137V113.356Z" fill="#E6E6E6"/>
<path d="M89.9262 113.356H91.0016V112.281H89.9262V113.356Z" fill="#FAFAFA"/>
<path d="M87.8454 113.356H88.9208V112.281H87.8454V113.356Z" fill="#E6E6E6"/>
<path d="M69.6524 102.271H61.2422V114.545H69.6524V102.271Z" fill="#F0F0F0"/>
<path d="M69.1146 102.812H65.9516V105.845H69.1146V102.812Z" fill="#FAFAFA"/>
<path d="M64.943 102.812H61.78V105.845H64.943V102.812Z" fill="#FAFAFA"/>
<path d="M69.1146 106.723H65.9516V109.756H69.1146V106.723Z" fill="#FAFAFA"/>
<path d="M64.943 106.723H61.78V109.756H64.943V106.723Z" fill="#FAFAFA"/>
<path d="M69.1146 110.634H65.9516V113.667H69.1146V110.634Z" fill="#FAFAFA"/>
<path d="M64.943 110.634H61.78V113.667H64.943V110.634Z" fill="#FAFAFA"/>
<path d="M133.156 102.271H124.746V114.545H133.156V102.271Z" fill="#F0F0F0"/>
<path d="M132.618 102.812H129.455V105.845H132.618V102.812Z" fill="#FAFAFA"/>
<path d="M128.446 102.812H125.283V105.845H128.446V102.812Z" fill="#FAFAFA"/>
<path d="M132.618 106.723H129.455V109.756H132.618V106.723Z" fill="#FAFAFA"/>
<path d="M128.446 106.723H125.283V109.756H128.446V106.723Z" fill="#FAFAFA"/>
<path d="M132.618 110.634H129.455V113.667H132.618V110.634Z" fill="#FAFAFA"/>
<path d="M128.446 110.634H125.283V113.667H128.446V110.634Z" fill="#FAFAFA"/>
<path d="M27.8523 118.931C27.8523 118.931 26.1622 115.257 28.0927 111.603C30.0233 107.949 30.5877 107.111 29.3553 106.362C28.1228 105.614 27.5583 109.275 27.5583 109.275C26.951 107.622 26.8913 105.817 27.388 104.128C28.243 101.496 28.7808 97.2107 27.6118 96.7498C26.4428 96.2889 27.388 102.094 26.3693 104.078C25.8492 102.688 25.5123 101.236 25.3673 99.7592C25.227 97.6449 25.4475 94.2682 24.5223 93.4132C23.5971 92.5581 23.0059 93.146 23.9144 97.8119C24.4604 100.599 24.7622 103.429 24.8162 106.269C24.8162 106.269 22.8122 100.15 21.4762 99.9696C20.1402 99.7892 20.1402 101.773 21.2858 103.493C22.4314 105.213 24.6626 108.293 25.0266 109.876C25.0266 109.876 22.8222 105.27 20.8416 106.683C18.861 108.096 22.5684 110.875 24.2183 111.88C25.8683 112.885 27.0173 119.185 27.0173 119.185L27.8523 118.931Z" fill="#E0E0E0"/>
<path d="M26.5163 120.444C26.5163 120.444 28.1629 116.73 26.1823 113.122C24.2016 109.515 23.6338 108.664 24.8463 107.902C26.0587 107.141 26.6766 110.784 26.6766 110.784C26.6766 110.784 27.6786 108.253 26.7968 105.634C25.9151 103.016 25.3172 98.7371 26.4829 98.2595C27.6485 97.7819 26.7701 103.603 27.8189 105.567C28.3217 104.167 28.6395 102.708 28.7641 101.225C28.8776 99.1112 28.6171 95.7378 29.5323 94.8594C30.4474 93.9809 31.0453 94.5688 30.2003 99.2481C29.6854 102.046 29.415 104.884 29.392 107.728C29.392 107.728 31.3259 101.579 32.6719 101.382C34.0179 101.185 34.0379 103.163 32.9057 104.899C31.7734 106.636 29.5857 109.749 29.2317 111.339C29.2317 111.339 31.3793 106.7 33.3766 108.082C35.3739 109.465 31.7066 112.301 30.0633 113.33C28.4201 114.358 27.3513 120.678 27.3513 120.678L26.5163 120.444Z" fill="#EBEBEB"/>
<path d="M34.1148 117.798H20.5076L21.6098 127.531H33.0126L34.1148 117.798Z" fill="#EBEBEB"/>
<path d="M136.098 117.104C136.148 116.77 137.274 108.991 135.016 106.302C134.791 106.019 134.506 105.79 134.181 105.63C133.857 105.471 133.501 105.386 133.139 105.38C128.577 105.273 127.952 108.937 127.945 108.974L128.486 109.058C128.507 108.924 129.048 105.825 133.126 105.925C133.41 105.927 133.69 105.994 133.945 106.12C134.2 106.247 134.424 106.429 134.599 106.653C136.703 109.155 135.571 116.947 135.561 117.024L136.098 117.104Z" fill="#EBEBEB"/>
<path d="M136.372 116.75L136.917 116.733C136.917 116.659 136.736 109.559 140.237 108.092C143.663 106.656 145.206 109.609 145.27 109.736L145.758 109.492C145.738 109.458 143.931 105.955 140.026 107.591C136.182 109.218 136.366 116.442 136.372 116.75Z" fill="#EBEBEB"/>
<path d="M136.359 117.308C136.359 117.194 136.392 105.952 138.58 102.678C140.681 99.5254 144.074 101.008 144.218 101.075L144.442 100.581C144.402 100.561 140.49 98.834 138.126 102.378C135.848 105.798 135.814 116.837 135.814 117.308H136.359Z" fill="#EBEBEB"/>
<path d="M132.484 105.647C132.484 105.647 134.488 106.382 133.884 108.116C133.279 109.849 126.993 112.702 126.993 112.702C126.993 112.702 124.358 110.287 126.78 106.356C129.201 102.424 132.431 104.408 132.484 105.647Z" fill="#E0E0E0"/>
<path d="M138.68 102.087C138.68 102.087 137.264 101.937 137.378 101.085C137.491 100.233 142.875 98.0056 146.062 101.593C146.062 101.593 144.027 105.086 141.088 105.13C138.149 105.173 138.68 102.087 138.68 102.087Z" fill="#E0E0E0"/>
<path d="M140.13 107.842C140.13 107.842 139.154 107.054 140.207 106.67C141.259 106.286 146.429 106.396 146.482 111.513C146.482 111.513 140.47 112.515 139.719 110.564C138.967 108.613 140.13 107.842 140.13 107.842Z" fill="#E0E0E0"/>
<path d="M131.416 127.531H140.758L141.763 117.307H130.407L131.416 127.531Z" fill="#EBEBEB"/>
<path d="M129.906 118.433H142.261V116.175H129.906V118.433Z" fill="#E0E0E0"/>
<path d="M83.5 142.805C119.266 142.805 148.259 141.112 148.259 139.024C148.259 136.936 119.266 135.243 83.5 135.243C47.7344 135.243 18.7407 136.936 18.7407 139.024C18.7407 141.112 47.7344 142.805 83.5 142.805Z" fill="#F5F5F5"/>
<path d="M133.122 136.299L135.617 136.579L135.307 129.211L132.331 129.632L133.122 136.299Z" fill="#263238"/>
<path d="M120.096 136.386L122.611 136.135L123.253 129.672H120.247L120.096 136.386Z" fill="#263238"/>
<path opacity="0.6" d="M133.122 136.299L135.617 136.579L135.307 129.211L132.331 129.632L133.122 136.299Z" fill="white"/>
<path opacity="0.6" d="M120.096 136.386L122.611 136.135L123.253 129.672H120.247L120.096 136.386Z" fill="white"/>
<path d="M132.438 81.8701C132.438 81.8701 132.184 83.5401 132.05 83.5401C131.917 83.5401 130.38 82.0638 130.38 82.0638L131.412 80.6343L132.438 81.8701Z" fill="#263238"/>
<path opacity="0.6" d="M132.438 81.8701C132.438 81.8701 132.184 83.5401 132.05 83.5401C131.917 83.5401 130.38 82.0638 130.38 82.0638L131.412 80.6343L132.438 81.8701Z" fill="white"/>
<path d="M129.746 62.0304C131.259 62.3644 135.684 72.2408 136.092 73.8072C136.499 75.3737 132.655 82.5981 132.655 82.5981L130.808 80.5574L132.932 73.8139L129.425 67.6049L129.746 62.0304Z" fill="#263238"/>
<path opacity="0.8" d="M129.746 62.0304C131.259 62.3644 135.684 72.2408 136.092 73.8072C136.499 75.3737 132.655 82.5981 132.655 82.5981L130.808 80.5574L132.932 73.8139L129.425 67.6049L129.746 62.0304Z" fill="white"/>
<path d="M136.025 135.938H132.932C132.882 135.938 132.833 135.955 132.793 135.987C132.754 136.019 132.726 136.062 132.715 136.112L132.194 138.359C132.181 138.414 132.181 138.471 132.194 138.525C132.206 138.58 132.231 138.631 132.267 138.674C132.302 138.718 132.347 138.752 132.398 138.775C132.45 138.798 132.505 138.809 132.561 138.807C133.563 138.79 134.275 138.734 135.524 138.734C136.295 138.734 138.61 138.814 139.672 138.814C140.734 138.814 140.881 137.765 140.45 137.668C138.506 137.244 137.044 136.666 136.426 136.095C136.315 135.996 136.173 135.941 136.025 135.938Z" fill="#263238"/>
<path d="M122.658 82.1172C122.658 82.1172 123.577 86.9034 124.726 92.6582C125.394 95.9748 126.128 99.6087 126.81 102.842C127.057 104.004 127.294 105.113 127.521 106.138C129.258 114.021 132.418 134.896 132.418 134.896L136.335 134.248C136.335 134.248 135.557 111.559 134.315 103.52C133.183 96.1719 130.891 79.188 130.891 79.188L122.658 82.1172Z" fill="#263238"/>
<path opacity="0.2" d="M124.726 92.6582C125.394 95.9748 126.128 99.6087 126.81 102.842C127.613 98.4788 127.268 93.9817 125.808 89.7925C125.375 90.7191 125.014 91.6771 124.726 92.6582Z" fill="black"/>
<path d="M122.992 135.938H119.906C119.856 135.938 119.807 135.955 119.767 135.987C119.728 136.019 119.7 136.062 119.689 136.112L119.168 138.359C119.155 138.414 119.155 138.47 119.167 138.525C119.18 138.579 119.205 138.63 119.24 138.673C119.275 138.716 119.32 138.751 119.37 138.774C119.421 138.797 119.476 138.809 119.532 138.807C120.534 138.79 121.249 138.734 122.498 138.734C123.266 138.734 125.584 138.814 126.646 138.814C127.708 138.814 127.855 137.765 127.421 137.668C125.477 137.244 124.014 136.666 123.396 136.095C123.285 135.995 123.142 135.939 122.992 135.938Z" fill="#263238"/>
<path d="M125.891 79.532C125.891 79.532 125.778 96.6862 125.871 104.104C125.975 112.227 123.513 134.832 123.513 134.832L119.552 134.498C119.552 134.498 119.395 113.79 118.78 105.744C118.092 96.7463 117.565 81.232 117.565 81.232L125.891 79.532Z" fill="#263238"/>
<path d="M117.568 81.8701C117.568 80.5341 117.401 78.4132 117.348 76.5661C117.297 74.8728 117.197 72.999 117.014 71.0384C116.751 68.2238 116.279 65.4327 115.601 62.6884C115.601 62.6884 117.201 62.2709 119.014 62.0004C119.368 61.947 119.736 61.9002 120.096 61.8601C122.003 61.6394 123.921 61.5279 125.841 61.5261C126.078 61.5261 126.312 61.5428 126.539 61.5629C127.621 61.6432 128.696 61.7904 129.759 62.0037C129.759 62.0037 132.712 68.6103 131.249 81.3557L117.568 81.8701Z" fill="#263238"/>
<path opacity="0.8" d="M117.568 81.8701C117.568 80.5341 117.401 78.4132 117.348 76.5661C117.297 74.8728 117.197 72.999 117.014 71.0384C116.751 68.2238 116.279 65.4327 115.601 62.6884C115.601 62.6884 117.201 62.2709 119.014 62.0004C119.368 61.947 119.736 61.9002 120.096 61.8601C122.003 61.6394 123.921 61.5279 125.841 61.5261C126.078 61.5261 126.312 61.5428 126.539 61.5629C127.621 61.6432 128.696 61.7904 129.759 62.0037C129.759 62.0037 132.712 68.6103 131.249 81.3557L117.568 81.8701Z" fill="white"/>
<path opacity="0.2" d="M116.452 66.8634C116.69 68.2796 116.863 69.679 117 71.0384C117.024 71.2722 117.044 71.5027 117.064 71.7331C117.502 70.3094 117.673 68.8169 117.568 67.331C117.232 67.1 116.853 66.9408 116.452 66.8634Z" fill="black"/>
<path d="M120.354 55.3805C120.801 57.2075 121.322 60.5709 120.086 61.8735C120.685 62.4354 121.397 62.8615 122.176 63.1226C122.954 63.3837 123.779 63.4737 124.595 63.3865C126.185 63.2596 126.212 62.1473 125.828 61.5495C123.744 61.1754 123.727 59.6457 124.021 58.1894L120.354 55.3805Z" fill="#263238"/>
<path opacity="0.6" d="M120.354 55.3805C120.801 57.2075 121.322 60.5709 120.086 61.8735C120.685 62.4354 121.397 62.8615 122.176 63.1226C122.954 63.3837 123.779 63.4737 124.595 63.3865C126.185 63.2596 126.212 62.1473 125.828 61.5495C123.744 61.1754 123.727 59.6457 124.021 58.1894L120.354 55.3805Z" fill="white"/>
<path opacity="0.2" d="M121.847 56.5261L124.018 58.1961C123.945 58.5347 123.901 58.8789 123.887 59.2248C123.096 59.1547 121.973 58.3531 121.853 57.5315C121.789 57.1996 121.787 56.8588 121.847 56.5261Z" fill="black"/>
<path d="M119.448 52.9356C120.063 55.4006 120.297 56.8768 121.786 57.9122C124.041 59.4687 126.907 57.7252 127.04 55.1167C127.16 52.7787 126.135 49.1314 123.51 48.617C122.929 48.5038 122.328 48.5397 121.765 48.7213C121.201 48.903 120.693 49.2244 120.288 49.6557C119.882 50.087 119.592 50.614 119.446 51.1876C119.299 51.7612 119.3 52.3626 119.448 52.9356Z" fill="#263238"/>
<path opacity="0.6" d="M119.448 52.9356C120.063 55.4006 120.297 56.8768 121.786 57.9122C124.041 59.4687 126.907 57.7252 127.04 55.1167C127.16 52.7787 126.135 49.1314 123.51 48.617C122.929 48.5038 122.328 48.5397 121.765 48.7213C121.201 48.903 120.693 49.2244 120.288 49.6557C119.882 50.087 119.592 50.614 119.446 51.1876C119.299 51.7612 119.3 52.3626 119.448 52.9356Z" fill="white"/>
<path d="M123.36 52.8955C123.396 53.0992 123.537 53.2295 123.667 53.2295C123.797 53.2295 123.877 53.0157 123.841 52.8153C123.804 52.6149 123.663 52.4813 123.533 52.4813C123.403 52.4813 123.323 52.6917 123.36 52.8955Z" fill="#263238"/>
<path d="M125.654 52.438C125.694 52.6417 125.831 52.772 125.965 52.772C126.098 52.772 126.175 52.5615 126.135 52.3578C126.095 52.1541 125.961 52.0238 125.828 52.0238C125.694 52.0238 125.617 52.2409 125.654 52.438Z" fill="#263238"/>
<path opacity="0.2" d="M124.946 52.6885C125.307 53.2405 125.743 53.7396 126.242 54.1714C126.12 54.2927 125.973 54.3869 125.812 54.4479C125.651 54.5089 125.479 54.5353 125.307 54.5255L124.946 52.6885Z" fill="black"/>
<path d="M124.362 55.5141C124.451 55.5108 124.541 55.4996 124.629 55.4807C124.637 55.4795 124.644 55.4767 124.651 55.4725C124.658 55.4683 124.664 55.4628 124.669 55.4562C124.673 55.4497 124.677 55.4423 124.678 55.4344C124.68 55.4266 124.68 55.4185 124.679 55.4106C124.676 55.3949 124.667 55.3811 124.654 55.3718C124.641 55.3625 124.625 55.3585 124.609 55.3605C124.358 55.4156 124.098 55.4107 123.85 55.3463C123.601 55.2819 123.371 55.1597 123.179 54.9897C123.174 54.9839 123.167 54.9792 123.159 54.976C123.152 54.9728 123.144 54.9712 123.136 54.9712C123.128 54.9712 123.12 54.9728 123.112 54.976C123.105 54.9792 123.098 54.9839 123.092 54.9897C123.081 55.0015 123.075 55.017 123.075 55.0331C123.075 55.0493 123.081 55.0648 123.092 55.0766C123.262 55.2333 123.463 55.3532 123.681 55.4285C123.9 55.5038 124.131 55.533 124.362 55.5141Z" fill="#263238"/>
<path d="M122.515 52.291C122.536 52.2899 122.557 52.2831 122.575 52.2714C122.593 52.2597 122.608 52.2434 122.618 52.2242C122.682 52.0852 122.777 51.9632 122.897 51.868C123.016 51.7728 123.156 51.7072 123.306 51.6764C123.338 51.6722 123.368 51.6555 123.388 51.6299C123.408 51.6042 123.417 51.5718 123.413 51.5395C123.411 51.5236 123.407 51.5083 123.399 51.4943C123.391 51.4804 123.381 51.4681 123.369 51.4581C123.356 51.4482 123.342 51.4408 123.327 51.4364C123.311 51.432 123.295 51.4307 123.279 51.4326C123.091 51.4675 122.913 51.5461 122.761 51.6621C122.608 51.7781 122.485 51.9283 122.401 52.1006C122.394 52.1145 122.389 52.1299 122.388 52.1456C122.387 52.1613 122.388 52.1772 122.393 52.1922C122.398 52.2071 122.406 52.221 122.417 52.2328C122.427 52.2446 122.44 52.2542 122.454 52.2609C122.471 52.276 122.492 52.2864 122.515 52.291Z" fill="#263238"/>
<path d="M126.499 51.4627C126.523 51.46 126.546 51.452 126.566 51.4393C126.591 51.4195 126.608 51.3907 126.612 51.3589C126.616 51.3271 126.608 51.2948 126.589 51.269C126.479 51.1111 126.332 50.9827 126.161 50.8948C125.99 50.8069 125.8 50.7622 125.607 50.7646C125.592 50.7655 125.576 50.7694 125.562 50.7763C125.548 50.7831 125.535 50.7927 125.524 50.8045C125.514 50.8163 125.506 50.8301 125.5 50.845C125.495 50.8599 125.493 50.8757 125.494 50.8915C125.494 50.9075 125.498 50.9232 125.505 50.9377C125.511 50.9522 125.521 50.9651 125.533 50.9758C125.545 50.9864 125.559 50.9945 125.574 50.9995C125.589 51.0046 125.605 51.0065 125.621 51.0051C125.773 51.0058 125.923 51.0432 126.058 51.1141C126.193 51.185 126.309 51.2874 126.396 51.4126C126.407 51.4297 126.422 51.4434 126.44 51.4522C126.459 51.461 126.479 51.4647 126.499 51.4627Z" fill="#263238"/>
<path d="M122.962 50.1667C122.962 50.1667 122.177 49.8127 121.96 50.4039C121.743 50.9951 122.054 52.4079 122.054 52.4079L121.863 52.1841C121.863 52.1841 121.606 55.5041 120.167 54.9663C118.727 54.4286 116.232 51.6029 118.904 49.3818C118.904 49.3818 119.071 48.5602 120.975 47.7953C122.879 47.0305 125.514 47.7753 126.182 49.0011C126.85 50.2269 126.422 51.0719 126.422 51.0719C126.301 50.8 126.118 50.5599 125.888 50.3705C125.888 50.5092 125.855 50.6459 125.789 50.7683C125.724 50.8908 125.629 50.995 125.514 51.0719C125.48 50.8004 125.371 50.5437 125.2 50.3304C125.183 50.5743 125.112 50.8115 124.993 51.0251C124.582 49.7092 123.613 49.6156 123.323 49.6891C123.219 49.7193 123.128 49.7821 123.063 49.8681C122.998 49.9542 122.963 50.0589 122.962 50.1667Z" fill="#263238"/>
<path d="M118.871 55.1935C119.02 55.4715 119.223 55.7171 119.467 55.9161C119.712 56.115 119.994 56.2634 120.297 56.3524C121.108 56.5829 121.529 55.8548 121.299 55.0799C121.105 54.3852 120.447 53.4266 119.629 53.5335C119.45 53.5619 119.282 53.634 119.138 53.7434C118.994 53.8527 118.88 53.9959 118.805 54.1602C118.73 54.3245 118.696 54.5048 118.708 54.6851C118.719 54.8654 118.775 55.04 118.871 55.1935Z" fill="#263238"/>
<path opacity="0.6" d="M118.871 55.1935C119.02 55.4715 119.223 55.7171 119.467 55.9161C119.712 56.115 119.994 56.2634 120.297 56.3524C121.108 56.5829 121.529 55.8548 121.299 55.0799C121.105 54.3852 120.447 53.4266 119.629 53.5335C119.45 53.5619 119.282 53.634 119.138 53.7434C118.994 53.8527 118.88 53.9959 118.805 54.1602C118.73 54.3245 118.696 54.5048 118.708 54.6851C118.719 54.8654 118.775 55.04 118.871 55.1935Z" fill="white"/>
<path d="M125.731 63.0591L125.42 64.2481C125.42 64.2481 126.793 71.7064 127.044 75.6309L126.449 76.6329L125.584 75.7645C125.584 75.7645 125.37 65.6376 125.016 64.2715L123.981 63.3463L124.776 62.6783L125.731 63.0591Z" fill="#263238"/>
<path d="M124.782 62.5748L120.267 60.4606L119.001 62.0137L122.902 64.9094L124.943 62.9722L127.251 64.4485L126.883 61.6162L124.231 60.4606L124.782 62.5748Z" fill="#263238"/>
<path opacity="0.9" d="M124.782 62.5748L120.267 60.4606L119.001 62.0137L122.902 64.9094L124.943 62.9722L127.251 64.4485L126.883 61.6162L124.231 60.4606L124.782 62.5748Z" fill="white"/>
<path d="M129.054 82.518L121.716 82.9154L121.656 82.0403L128.984 81.7397L129.054 82.518Z" fill="black"/>
<path d="M121.285 82.057L121.366 82.9354L117.635 83.1392L117.601 82.2073L121.285 82.057Z" fill="black"/>
<path d="M129.422 81.7197L131.225 81.6462L131.325 82.3944L129.485 82.4946L129.422 81.7197Z" fill="black"/>
<path d="M126.726 81.9168L126.793 82.6249C126.795 82.6497 126.792 82.6747 126.784 82.6983C126.776 82.7219 126.763 82.7437 126.747 82.7623C126.73 82.781 126.71 82.7962 126.688 82.807C126.665 82.8178 126.641 82.824 126.616 82.8253L125.153 82.8754C125.106 82.8772 125.06 82.8604 125.025 82.8285C124.99 82.7966 124.969 82.7523 124.966 82.705L124.909 82.007C124.908 81.9821 124.911 81.9572 124.919 81.9336C124.927 81.91 124.939 81.8882 124.956 81.8696C124.972 81.8509 124.992 81.8357 125.015 81.8249C125.037 81.8141 125.061 81.8079 125.086 81.8066L126.536 81.7498C126.583 81.7487 126.628 81.7653 126.664 81.7962C126.699 81.8271 126.721 81.8702 126.726 81.9168Z" fill="white"/>
<path d="M132.852 83.5L132.214 81.83C131.88 81.1052 130.744 81.7766 130.744 81.7766C130.693 81.803 130.652 81.8454 130.628 81.8972C130.603 81.949 130.596 82.0075 130.607 82.0638L131.466 85.2735C131.488 85.3517 131.531 85.4224 131.591 85.478C131.65 85.5337 131.723 85.5723 131.802 85.5897C131.882 85.6072 131.964 85.6029 132.042 85.5772C132.119 85.5515 132.188 85.5054 132.241 85.4439L132.555 85.1099C132.746 84.8943 132.876 84.6303 132.928 84.3464C132.98 84.0626 132.954 83.7699 132.852 83.5Z" fill="#263238"/>
<path opacity="0.6" d="M132.852 83.5L132.214 81.83C131.88 81.1052 130.744 81.7766 130.744 81.7766C130.693 81.803 130.652 81.8454 130.628 81.8972C130.603 81.949 130.596 82.0075 130.607 82.0638L131.466 85.2735C131.488 85.3517 131.531 85.4224 131.591 85.478C131.65 85.5337 131.723 85.5723 131.802 85.5897C131.882 85.6072 131.964 85.6029 132.042 85.5772C132.119 85.5515 132.188 85.5054 132.241 85.4439L132.555 85.1099C132.746 84.8943 132.876 84.6303 132.928 84.3464C132.98 84.0626 132.954 83.7699 132.852 83.5Z" fill="white"/>
<path d="M114.535 96.0918H114.385C113.745 96.088 113.111 95.9668 112.515 95.7344C111.967 95.5006 111.67 95.18 111.68 94.8293C111.68 94.1446 112.879 93.6569 114.438 93.687C115.079 93.6904 115.713 93.8116 116.309 94.0444C116.857 94.2782 117.154 94.5988 117.147 94.9495C117.13 95.6108 116.022 96.0918 114.535 96.0918ZM114.291 94.021C112.955 94.021 112.02 94.4418 112.014 94.8359C112.014 95.0363 112.244 95.2568 112.648 95.4271C113.204 95.6469 113.797 95.7602 114.395 95.7611C115.804 95.7878 116.803 95.3536 116.813 94.9462C116.813 94.7458 116.579 94.5253 116.179 94.355C115.622 94.1352 115.03 94.0219 114.432 94.021H114.291Z" fill="#263238"/>
<path d="M107.945 94.9929L107.748 104.078C107.747 104.149 107.759 104.219 107.784 104.285C107.81 104.351 107.849 104.412 107.898 104.463C107.947 104.514 108.005 104.555 108.07 104.584C108.135 104.612 108.205 104.627 108.276 104.629L121.526 104.916C121.669 104.919 121.808 104.865 121.912 104.766C122.015 104.667 122.076 104.532 122.08 104.388L122.277 95.3068C122.28 95.163 122.226 95.0239 122.126 94.9201C122.027 94.8162 121.89 94.7559 121.746 94.7524L108.497 94.4651C108.426 94.4634 108.355 94.4756 108.289 94.5012C108.223 94.5268 108.162 94.5653 108.111 94.6143C108.06 94.6634 108.019 94.7221 107.991 94.787C107.962 94.852 107.947 94.922 107.945 94.9929Z" fill="#263238"/>
<path opacity="0.1" d="M107.945 94.9929L107.748 104.078C107.747 104.149 107.759 104.219 107.784 104.285C107.81 104.351 107.849 104.412 107.898 104.463C107.947 104.514 108.005 104.555 108.07 104.584C108.135 104.612 108.205 104.627 108.276 104.629L121.526 104.916C121.669 104.919 121.808 104.865 121.912 104.766C122.015 104.667 122.076 104.532 122.08 104.388L122.277 95.3068C122.28 95.163 122.226 95.0239 122.126 94.9201C122.027 94.8162 121.89 94.7559 121.746 94.7524L108.497 94.4651C108.426 94.4634 108.355 94.4756 108.289 94.5012C108.223 94.5268 108.162 94.5653 108.111 94.6143C108.06 94.6634 108.019 94.7221 107.991 94.787C107.962 94.852 107.947 94.922 107.945 94.9929Z" fill="white"/>
<path opacity="0.2" d="M120.975 95.2768L120.778 104.358C120.775 104.502 120.829 104.64 120.928 104.744C121.026 104.848 121.162 104.908 121.305 104.913H121.526C121.669 104.915 121.808 104.862 121.912 104.763C122.015 104.664 122.076 104.528 122.08 104.385L122.277 95.3035C122.28 95.1597 122.226 95.0206 122.126 94.9167C122.027 94.8129 121.89 94.7526 121.746 94.7491H121.526C121.455 94.7473 121.384 94.7596 121.318 94.7852C121.252 94.8108 121.192 94.8492 121.141 94.8983C121.089 94.9473 121.048 95.006 121.02 95.071C120.991 95.1359 120.976 95.2059 120.975 95.2768Z" fill="white"/>
<path d="M121.382 94.7524C121.245 94.7567 121.114 94.814 121.017 94.9123C120.921 95.0106 120.866 95.1424 120.865 95.2801L120.771 99.4919C120.77 99.5483 120.758 99.604 120.736 99.6558C120.713 99.7075 120.681 99.7543 120.64 99.7934C120.599 99.8326 120.551 99.8633 120.499 99.8837C120.446 99.9042 120.39 99.9141 120.334 99.9127L108.163 99.6489C108.049 99.6454 107.942 99.5976 107.863 99.5159C107.784 99.4341 107.741 99.3248 107.742 99.2113L107.835 94.9862C107.837 94.9158 107.852 94.8462 107.88 94.7817C107.908 94.7171 107.949 94.6588 108 94.61C108.051 94.5613 108.111 94.5231 108.177 94.4977C108.242 94.4722 108.313 94.4601 108.383 94.4618L121.636 94.7491L121.382 94.7524Z" fill="#263238"/>
<path opacity="0.2" d="M121.382 94.7524C121.245 94.7567 121.114 94.814 121.017 94.9123C120.921 95.0106 120.866 95.1424 120.865 95.2801L120.771 99.4919C120.77 99.5483 120.758 99.604 120.736 99.6558C120.713 99.7075 120.681 99.7543 120.64 99.7934C120.599 99.8326 120.551 99.8633 120.499 99.8837C120.446 99.9042 120.39 99.9141 120.334 99.9127L108.163 99.6489C108.049 99.6454 107.942 99.5976 107.863 99.5159C107.784 99.4341 107.741 99.3248 107.742 99.2113L107.835 94.9862C107.837 94.9158 107.852 94.8462 107.88 94.7817C107.908 94.7171 107.949 94.6588 108 94.61C108.051 94.5613 108.111 94.5231 108.177 94.4977C108.242 94.4722 108.313 94.4601 108.383 94.4618L121.636 94.7491L121.382 94.7524Z" fill="white"/>
<path d="M114.484 101.828L113.482 101.806C113.461 101.806 113.441 101.801 113.421 101.792C113.402 101.784 113.385 101.772 113.37 101.757C113.355 101.741 113.344 101.723 113.336 101.704C113.329 101.684 113.325 101.663 113.326 101.642L113.378 99.2046L114.684 99.2329L114.631 101.671C114.631 101.71 114.615 101.748 114.588 101.777C114.561 101.807 114.524 101.824 114.484 101.828Z" fill="#263238"/>
<path d="M114.589 101.202L113.45 101.175C113.362 101.174 113.278 101.138 113.216 101.075C113.156 101.011 113.124 100.926 113.126 100.838V100.293C113.126 100.205 113.161 100.12 113.224 100.057C113.286 99.9947 113.371 99.9595 113.46 99.9595L114.599 99.9829C114.686 99.9859 114.769 100.023 114.829 100.086C114.89 100.15 114.924 100.235 114.923 100.324V100.868C114.923 100.957 114.888 101.041 114.825 101.104C114.762 101.167 114.677 101.202 114.589 101.202ZM113.46 100.136C113.417 100.137 113.377 100.154 113.346 100.184C113.316 100.214 113.298 100.254 113.296 100.297V100.841C113.295 100.863 113.298 100.884 113.305 100.904C113.313 100.925 113.324 100.943 113.34 100.958C113.354 100.974 113.373 100.987 113.393 100.996C113.413 101.004 113.435 101.009 113.456 101.008L114.595 101.035C114.617 101.036 114.639 101.033 114.659 101.026C114.68 101.018 114.698 101.007 114.714 100.992C114.73 100.976 114.742 100.958 114.751 100.938C114.759 100.918 114.763 100.896 114.762 100.875V100.327C114.762 100.283 114.745 100.242 114.716 100.21C114.685 100.18 114.645 100.162 114.602 100.16L113.463 100.136H113.46Z" fill="white"/>
<path d="M113.226 90.8646L112.942 93.4264L115.641 92.4845C115.641 92.4845 115.761 90.1799 114.562 90.1799L113.226 90.8646Z" fill="#263238"/>
<path d="M113.487 94.5787L115.754 94.4618L115.648 92.4845L112.949 93.4264L113.487 94.5787Z" fill="#263238"/>
<g opacity="0.6">
<path d="M113.226 90.8646L112.942 93.4264L115.641 92.4845C115.641 92.4845 115.761 90.1799 114.562 90.1799L113.226 90.8646Z" fill="white"/>
<path d="M113.487 94.5787L115.754 94.4618L115.647 92.4845L112.949 93.4264L113.487 94.5787Z" fill="white"/>
</g>
<path d="M115.587 62.7018C114.609 63.8574 112.057 73.4466 111.703 76.3156C111.349 79.1847 113.039 91.0751 113.039 91.0751L115.601 90.681C115.601 90.681 114.799 78.2662 115.153 77.4479C115.507 76.6296 117.728 67.8287 117.728 67.8287C117.728 67.8287 117.962 66.132 117.615 64.9496C117.267 63.7672 115.587 62.7018 115.587 62.7018Z" fill="#263238"/>
<path opacity="0.8" d="M115.587 62.7018C114.609 63.8574 112.057 73.4466 111.703 76.3156C111.349 79.1847 113.039 91.0751 113.039 91.0751L115.601 90.681C115.601 90.681 114.799 78.2662 115.153 77.4479C115.507 76.6296 117.728 67.8287 117.728 67.8287C117.728 67.8287 117.962 66.132 117.615 64.9496C117.267 63.7672 115.587 62.7018 115.587 62.7018Z" fill="white"/>
<path d="M88.8306 33.8408H78.3631L52.6117 138.82H114.582L88.8306 33.8408Z" fill="#0047AB"/>
<path opacity="0.7" d="M88.8306 33.8408H78.3631L52.6117 138.82H114.582L88.8306 33.8408Z" fill="white"/>
<path opacity="0.2" d="M88.1393 33.8408H79.0545L56.7099 138.82H110.487L88.1393 33.8408Z" fill="white"/>
<path d="M141.045 31.9371H25.9551C25.8223 31.9371 25.6948 31.8843 25.6009 31.7903C25.5069 31.6964 25.4541 31.5689 25.4541 31.4361C25.4541 31.3032 25.5069 31.1758 25.6009 31.0818C25.6948 30.9878 25.8223 30.9351 25.9551 30.9351H141.045C141.178 30.9351 141.305 30.9878 141.399 31.0818C141.493 31.1758 141.546 31.3032 141.546 31.4361C141.546 31.5689 141.493 31.6964 141.399 31.7903C141.305 31.8843 141.178 31.9371 141.045 31.9371Z" fill="#263238"/>
<path d="M84.7525 27.2043H76.4158V34.9999H84.7525V27.2043Z" fill="black"/>
<path d="M89.2081 24.7026H77.7185V26.5497H89.2081V24.7026Z" fill="#263238"/>
<path d="M76.9235 36.9771H81.9235L80.327 34.9965H77.2108L76.9235 36.9771Z" fill="black"/>
<path d="M90.3604 25.718V36.9772H80.5374L79.9529 35.8549H77.4646L77.0939 36.9772H76.9235V25.718H90.3604Z" fill="#263238"/>
<path opacity="0.1" d="M90.3604 25.718H80.7679V36.9772H90.3604V25.718Z" fill="white"/>
<path opacity="0.1" d="M79.6523 27.8455C79.6523 28.6505 79.1881 29.3051 78.6203 29.3051C78.5725 29.31 78.5244 29.31 78.4766 29.3051C77.9756 29.2116 77.5849 28.6004 77.5849 27.8622C77.5849 27.1241 77.9756 26.5262 78.4766 26.4193C78.5243 26.4128 78.5726 26.4128 78.6203 26.4193C79.1881 26.3859 79.6523 27.0539 79.6523 27.8455Z" fill="white"/>
<path opacity="0.1" d="M79.3584 27.8456C79.3584 28.5837 78.9743 29.1816 78.4766 29.2885C77.9756 29.1949 77.5849 28.5837 77.5849 27.8456C77.5849 27.1074 77.9756 26.5096 78.4766 26.4027C78.9743 26.4996 79.3584 27.1074 79.3584 27.8456Z" fill="white"/>
<path opacity="0.1" d="M78.7205 27.8455C78.7205 28.1996 78.5501 28.4868 78.3397 28.4868C78.1293 28.4868 77.9589 28.1996 77.9589 27.8455C77.9589 27.4915 78.1293 27.2009 78.3397 27.2009C78.5501 27.2009 78.7205 27.4915 78.7205 27.8455Z" fill="white"/>
<path d="M90.7678 27.2043H82.4312V34.9999H90.7678V27.2043Z" fill="#263238"/>
<path opacity="0.1" d="M90.7678 27.3613H83.1192V34.8429H90.7678V27.3613Z" fill="white"/>
<path d="M90.0364 34.1081V28.0928H83.854V34.1081H90.0364Z" fill="#0047AB"/>
<path d="M86.7431 33.1195C86.6869 33.119 86.6318 33.1044 86.5827 33.077C86.5337 33.0495 86.4924 33.0102 86.4626 32.9625L84.8928 30.7615C84.83 30.669 84.8001 30.5581 84.808 30.4466C84.8158 30.3352 84.861 30.2296 84.9362 30.1469C84.9711 30.1113 85.0135 30.0839 85.0604 30.0668C85.1073 30.0497 85.1574 30.0433 85.207 30.0481C85.2567 30.0529 85.3046 30.0688 85.3474 30.0945C85.3901 30.1203 85.4265 30.1553 85.4539 30.197L86.7431 32.0039L88.8741 29.018C88.9014 28.9757 88.938 28.9402 88.981 28.9141C89.024 28.8879 89.0724 28.8718 89.1225 28.867C89.1726 28.8622 89.2231 28.8688 89.2703 28.8862C89.3175 28.9037 89.3602 28.9316 89.3951 28.9679C89.4706 29.0512 89.5157 29.1576 89.5229 29.2698C89.5302 29.382 89.4993 29.4934 89.4352 29.5858L87.0237 32.9625C86.9939 33.0102 86.9526 33.0495 86.9035 33.077C86.8545 33.1044 86.7993 33.119 86.7431 33.1195Z" fill="white"/>
<path d="M124.856 27.2043H116.519V34.9999H124.856V27.2043Z" fill="black"/>
<path d="M129.311 24.7026H117.822V26.5497H129.311V24.7026Z" fill="#263238"/>
<path d="M117.027 36.9771H122.027L120.434 34.9965H117.314L117.027 36.9771Z" fill="black"/>
<path d="M130.467 25.718V36.9772H120.641L120.056 35.8549H117.568L117.197 36.9772H117.027V25.718H130.467Z" fill="#263238"/>
<path opacity="0.1" d="M130.464 25.718H120.871V36.9772H130.464V25.718Z" fill="white"/>
<path opacity="0.1" d="M119.756 27.8455C119.756 28.6505 119.291 29.3051 118.724 29.3051C118.676 29.31 118.628 29.31 118.58 29.3051C118.079 29.2116 117.692 28.6004 117.692 27.8622C117.692 27.1241 118.079 26.5262 118.58 26.4193C118.628 26.4128 118.676 26.4128 118.724 26.4193C119.291 26.3859 119.756 27.0539 119.756 27.8455Z" fill="white"/>
<path opacity="0.1" d="M119.465 27.8456C119.465 28.5837 119.078 29.1816 118.58 29.2885C118.079 29.1949 117.692 28.5837 117.692 27.8456C117.692 27.1074 118.079 26.5096 118.58 26.4027C119.078 26.4996 119.465 27.1074 119.465 27.8456Z" fill="white"/>
<path opacity="0.1" d="M118.827 27.8455C118.827 28.1996 118.657 28.4868 118.446 28.4868C118.236 28.4868 118.066 28.1996 118.066 27.8455C118.066 27.4915 118.236 27.2009 118.446 27.2009C118.657 27.2009 118.827 27.4915 118.827 27.8455Z" fill="white"/>
<path d="M130.871 27.2043H122.535V34.9999H130.871V27.2043Z" fill="#263238"/>
<path opacity="0.1" d="M130.871 27.3613H123.223V34.8429H130.871V27.3613Z" fill="white"/>
<path d="M130.14 34.1081V28.0928H123.957V34.1081H130.14Z" fill="#0047AB"/>
<path d="M127.588 31.1021L129.191 29.3619C129.264 29.2806 129.304 29.1754 129.304 29.0663C129.304 28.9573 129.264 28.8521 129.191 28.7708C129.157 28.7323 129.115 28.7015 129.068 28.6804C129.021 28.6593 128.97 28.6484 128.919 28.6484C128.868 28.6484 128.817 28.6593 128.77 28.6804C128.723 28.7015 128.681 28.7323 128.647 28.7708L127.044 30.5109L125.44 28.7708C125.406 28.7323 125.364 28.7015 125.317 28.6804C125.27 28.6593 125.22 28.6484 125.168 28.6484C125.117 28.6484 125.066 28.6593 125.019 28.6804C124.972 28.7015 124.93 28.7323 124.896 28.7708C124.823 28.8521 124.783 28.9573 124.783 29.0663C124.783 29.1754 124.823 29.2806 124.896 29.3619L126.499 31.1021L124.896 32.8389C124.823 32.9202 124.783 33.0255 124.783 33.1345C124.783 33.2435 124.823 33.3487 124.896 33.4301C124.93 33.4688 124.972 33.4998 125.02 33.5211C125.067 33.5424 125.118 33.5535 125.17 33.5536C125.221 33.5535 125.272 33.5423 125.318 33.521C125.365 33.4997 125.407 33.4687 125.44 33.4301L127.044 31.6899L128.647 33.4301C128.681 33.4688 128.723 33.4998 128.77 33.5211C128.818 33.5424 128.869 33.5535 128.921 33.5536C128.972 33.5535 129.023 33.5423 129.069 33.521C129.116 33.4997 129.157 33.4687 129.191 33.4301C129.264 33.3487 129.304 33.2435 129.304 33.1345C129.304 33.0255 129.264 32.9202 129.191 32.8389L127.588 31.1021Z" fill="white"/>
<path d="M44.6491 27.2043H36.3125V34.9999H44.6491V27.2043Z" fill="black"/>
<path d="M49.1047 24.7026H37.6151V26.5497H49.1047V24.7026Z" fill="#263238"/>
<path d="M36.8168 36.9771H41.8201L40.2236 34.9965H37.1074L36.8168 36.9771Z" fill="black"/>
<path d="M50.257 25.718V36.9772H40.4307L39.8495 35.8549H37.3612L36.9905 36.9772H36.8168V25.718H50.257Z" fill="#263238"/>
<path opacity="0.1" d="M50.257 25.718H40.6645V36.9772H50.257V25.718Z" fill="white"/>
<path opacity="0.1" d="M39.5489 27.8455C39.5489 28.6505 39.0847 29.3051 38.5169 29.3051C38.4691 29.3103 38.421 29.3103 38.3733 29.3051C37.8689 29.2116 37.4815 28.6004 37.4815 27.8622C37.4815 27.1241 37.8689 26.5262 38.3733 26.4193C38.4209 26.4126 38.4692 26.4126 38.5169 26.4193C39.078 26.3859 39.5489 27.0539 39.5489 27.8455Z" fill="white"/>
<path opacity="0.1" d="M39.255 27.8456C39.255 28.5837 38.8709 29.1816 38.3733 29.2885C37.8689 29.1949 37.4815 28.5837 37.4815 27.8456C37.4815 27.1074 37.8689 26.5096 38.3733 26.4027C38.8709 26.4996 39.255 27.1074 39.255 27.8456Z" fill="white"/>
<path opacity="0.1" d="M38.6171 27.8455C38.6171 28.1996 38.4467 28.4868 38.2363 28.4868C38.0259 28.4868 37.8556 28.1996 37.8556 27.8455C37.8556 27.4915 38.0259 27.2009 38.2363 27.2009C38.4467 27.2009 38.6171 27.4915 38.6171 27.8455Z" fill="white"/>
<path d="M50.6645 27.2043H42.3278V34.9999H50.6645V27.2043Z" fill="#263238"/>
<path opacity="0.1" d="M50.6645 27.3613H43.0159V34.8429H50.6645V27.3613Z" fill="white"/>
<path d="M49.9297 34.1081V28.0928H43.7473V34.1081H49.9297Z" fill="#0047AB"/>
<path d="M47.3846 31.1021L48.9878 29.3619C49.0603 29.2806 49.1004 29.1754 49.1004 29.0663C49.1004 28.9573 49.0603 28.8521 48.9878 28.7708C48.9536 28.7323 48.9117 28.7015 48.8648 28.6804C48.8179 28.6593 48.767 28.6484 48.7156 28.6484C48.6641 28.6484 48.6133 28.6593 48.5664 28.6804C48.5194 28.7015 48.4775 28.7323 48.4434 28.7708L46.8402 30.5109L45.237 28.7708C45.2028 28.7323 45.1609 28.7015 45.114 28.6804C45.0671 28.6593 45.0162 28.6484 44.9648 28.6484C44.9133 28.6484 44.8625 28.6593 44.8155 28.6804C44.7686 28.7015 44.7267 28.7323 44.6925 28.7708C44.62 28.8521 44.5799 28.9573 44.5799 29.0663C44.5799 29.1754 44.62 29.2806 44.6925 29.3619L46.2957 31.1021L44.6925 32.8389C44.62 32.9202 44.5799 33.0255 44.5799 33.1345C44.5799 33.2435 44.62 33.3487 44.6925 33.4301C44.7264 33.469 44.7682 33.5002 44.8152 33.5216C44.8621 33.543 44.9132 33.5541 44.9648 33.5541C45.0164 33.5541 45.0674 33.543 45.1143 33.5216C45.1613 33.5002 45.2031 33.469 45.237 33.4301L46.8402 31.6899L48.4434 33.4301C48.4771 33.4687 48.5187 33.4997 48.5653 33.521C48.612 33.5423 48.6626 33.5535 48.7139 33.5536C48.7657 33.5535 48.8169 33.5424 48.8641 33.5211C48.9113 33.4998 48.9534 33.4688 48.9878 33.4301C49.0603 33.3487 49.1004 33.2435 49.1004 33.1345C49.1004 33.0255 49.0603 32.9202 48.9878 32.8389L47.3846 31.1021Z" fill="white"/>
<path d="M76.9436 134.709L77.2041 135.073L77.7251 134.849L78.0591 136.442L80.2535 139.485C80.2535 139.485 81.0919 139.619 80.4305 137.889C80.3996 137.804 80.3772 137.717 80.3637 137.628C80.1667 136.593 80.5975 134.622 80.5975 134.622L79.3918 132.952C79.2799 132.958 79.1683 132.97 79.0578 132.989C78.5468 133.059 77.5481 133.299 76.9436 134.709Z" fill="#0047AB"/>
<path opacity="0.2" d="M76.9436 134.709L77.2041 135.073L77.7251 134.849L78.0591 136.442L80.2535 139.485C80.2535 139.485 81.0919 139.619 80.4305 137.889C80.3996 137.804 80.3772 137.717 80.3637 137.628C80.1667 136.593 80.5975 134.622 80.5975 134.622L79.3918 132.952C79.2799 132.958 79.1683 132.97 79.0578 132.989C78.5468 133.059 77.5481 133.299 76.9436 134.709Z" fill="black"/>
<path d="M79.0444 132.975C79.4486 133.019 79.0945 134.802 79.2582 135.801C79.4018 136.696 79.7926 137.538 80.3604 137.625C80.1633 136.589 80.8681 134.231 80.8681 134.231L79.8995 132.895C79.8995 132.895 79.2582 132.932 79.0444 132.975Z" fill="#EBB376"/>
<path opacity="0.2" d="M79.0444 132.975C79.4486 133.019 79.0945 134.802 79.2582 135.801C79.4018 136.696 79.7926 137.538 80.3604 137.625C80.1633 136.589 80.8681 134.231 80.8681 134.231L79.8995 132.895C79.8995 132.895 79.2582 132.932 79.0444 132.975Z" fill="black"/>
<path d="M80.307 139.371H80.7545L80.8781 138.82L82.3611 139.488H86.1119C86.1119 139.488 86.7097 138.887 84.9228 138.41C84.835 138.386 84.7499 138.354 84.669 138.313C83.7171 137.865 82.3611 136.355 82.3611 136.355H80.3003C80.2367 136.451 80.1798 136.55 80.1299 136.653C79.9062 137.107 79.5187 138.059 80.307 139.371Z" fill="#0047AB"/>
<path d="M80.1299 136.653C80.4038 136.349 81.6396 137.681 82.5481 138.136C83.3564 138.537 84.2649 138.717 84.669 138.306C83.7171 137.859 82.2174 135.908 82.2174 135.908H80.5474C80.5474 135.908 80.2268 136.459 80.1299 136.653Z" fill="#EBB376"/>
<path d="M96.5961 69.3818L95.701 67.0171L98.4966 67.2542C98.4966 67.2542 99.1646 69.4119 98.039 69.7091L96.5961 69.3818Z" fill="#EBB376"/>
<path d="M96.1653 64.5588L98.4966 65.5775V67.2542L95.7044 67.0171L96.1653 64.5588Z" fill="#EBB376"/>
<path d="M98.373 69.4286C98.373 69.4286 98.2528 79.963 95.9148 79.963C94.6155 79.963 93.1459 79.1179 91.9068 78.1627C90.8568 77.3463 89.8821 76.4375 88.9943 75.4473V75.4105L88.176 70.5208C90.4773 70.464 94.4953 75.7379 94.4953 75.7379L96.4325 69.0579L98.373 69.4286Z" fill="#0047AB"/>
<path opacity="0.2" d="M91.8968 78.156C90.8468 77.3397 89.8721 76.4309 88.9843 75.4406V75.4039L89.7324 73.7339C90.987 74.8813 91.7604 76.4614 91.8968 78.156Z" fill="black"/>
<path d="M78.7171 58.8374C78.7171 58.8374 79.4486 57.5749 81.5428 57.3578C83.6369 57.1407 86.4158 58.2629 86.84 61.456C87.2642 64.649 88.176 66.4059 88.176 66.4059C88.176 66.4059 81.4292 68.1694 79.5321 67.5348C77.635 66.9002 74.7024 59.7559 78.7171 58.8374Z" fill="#263238"/>
<path d="M91.6529 115.03C90.6509 116.883 89.6322 118.877 88.6469 120.875C87.361 123.51 86.152 126.152 85.1166 128.517C84.0244 131.008 83.1393 133.193 82.5848 134.699C82.0605 134.759 80.4806 133.817 80.0231 132.962C80.8324 128.098 82.0616 123.312 83.6971 118.66C84.7191 115.868 85.9716 113.119 87.4746 110.898C81.329 93.4165 82.8353 86.85 82.8353 86.85L89.9562 86.5327C89.9562 86.5327 91.0317 93.0424 91.8934 99.719C92.3443 103.219 92.7318 106.766 92.8754 109.445V109.472C92.9912 111.402 92.568 113.326 91.6529 115.03Z" fill="#263238"/>
<path opacity="0.2" d="M85.7846 105.698C84.8828 102.725 84.2315 100.153 83.7806 97.9455C84.2381 96.2221 84.8828 94.7424 85.7612 93.854C85.7545 93.854 87.0204 98.6636 85.7846 105.698Z" fill="black"/>
<path opacity="0.2" d="M85.1266 128.516C84.0344 131.008 83.1493 133.193 82.5949 134.699C82.0705 134.759 80.4907 133.817 80.0331 132.962C80.8424 128.098 82.0717 123.312 83.7071 118.66C84.2381 121.556 84.836 125.213 85.1266 128.516Z" fill="black"/>
<path d="M87.2608 85.7545C87.2608 85.7545 85.19 101.787 84.001 109.512C82.7518 117.618 82.5949 130.621 82.9055 135.921C82.4512 136.185 80.7979 136.506 79.8995 136.225C79.8995 136.225 75.6744 119.833 78.48 110.31C75.9249 91.5561 79.6256 86.9636 79.6256 86.9636L87.2608 85.7545Z" fill="#263238"/>
<path opacity="0.7" d="M86.5695 75.6577C84.4864 73.779 82.176 72.1688 79.6924 70.8648C79.9195 70.838 80.1533 70.8147 80.3838 70.7946C81.9612 70.6293 83.5483 70.5757 85.1333 70.6343C85.524 70.6577 85.9282 70.6911 86.3256 70.7245C87.3076 72.9756 86.5695 75.6577 86.5695 75.6577Z" fill="white"/>
<path d="M79.6924 85.7545C79.4786 83.323 78.6069 78.8641 77.1072 74.1814C76.6196 72.6584 77.4412 70.9382 77.4412 70.9382C77.4412 70.9382 79.4853 70.8881 79.6891 70.8648C79.8928 70.8414 80.15 70.8147 80.3804 70.7946C81.9578 70.6293 83.545 70.5757 85.1299 70.6343C85.5207 70.6577 85.9248 70.6911 86.3223 70.7245C86.4492 70.7245 87.8854 70.7512 88.009 70.7646C88.009 70.7646 89.9963 73.0358 90.1165 74.8761C90.2661 76.2915 90.3208 77.7153 90.2802 79.1379C90.2802 80.808 90.1499 83.0124 90.0397 85.3604L79.6924 85.7545Z" fill="#0047AB"/>
<path opacity="0.8" d="M79.6924 85.7545C79.4786 83.323 78.6069 78.8641 77.1072 74.1814C76.6196 72.6584 77.4412 70.9382 77.4412 70.9382C77.4412 70.9382 79.4853 70.8881 79.6891 70.8648C79.8928 70.8414 80.15 70.8147 80.3804 70.7946C81.9578 70.6293 83.545 70.5757 85.1299 70.6343C85.5207 70.6577 85.9248 70.6911 86.3223 70.7245C86.4492 70.7245 87.8854 70.7512 88.009 70.7646C88.009 70.7646 89.9963 73.0358 90.1165 74.8761C90.2661 76.2915 90.3208 77.7153 90.2802 79.1379C90.2802 80.808 90.1499 83.0124 90.0397 85.3604L79.6924 85.7545Z" fill="white"/>
<path d="M79.6924 85.7545L90.0464 85.0564C90.0464 85.0564 90.357 88.1693 90.2869 88.1259C90.2167 88.0824 79.2048 88.51 79.2048 88.51L79.6924 85.7545Z" fill="#263238"/>
<path d="M79.7859 85.9281L90.0431 85.3604V86.3323L79.6924 86.8834L79.7859 85.9281Z" fill="black"/>
<path d="M85.5608 86.7298C85.49 86.7308 85.4216 86.7048 85.3694 86.657C85.3172 86.6091 85.2853 86.5432 85.2802 86.4726L85.2368 85.9015C85.2335 85.8648 85.2377 85.8277 85.2492 85.7927C85.2606 85.7577 85.2792 85.7253 85.3036 85.6977C85.3273 85.6698 85.3564 85.6469 85.3891 85.6302C85.4218 85.6136 85.4574 85.6036 85.494 85.6009L86.6162 85.514C86.655 85.5106 86.6941 85.5153 86.7309 85.528C86.7678 85.5407 86.8015 85.5609 86.83 85.5875C86.8584 85.614 86.881 85.6461 86.8965 85.6817C86.9121 85.7173 86.9201 85.7557 86.9202 85.7946V86.3925C86.9202 86.4646 86.8925 86.534 86.8428 86.5863C86.793 86.6385 86.725 86.6696 86.653 86.673L85.5741 86.7298H85.5608ZM85.4472 86.4592C85.4476 86.4742 85.4511 86.4889 85.4574 86.5024C85.4638 86.516 85.473 86.528 85.4843 86.5377C85.4957 86.5475 85.5089 86.5548 85.5232 86.5591C85.5376 86.5634 85.5526 86.5647 85.5675 86.5628L86.6463 86.506C86.6752 86.5043 86.7024 86.4916 86.7223 86.4705C86.7422 86.4494 86.7532 86.4214 86.7532 86.3925V85.7946C86.7533 85.7789 86.7502 85.7633 86.7438 85.7489C86.7375 85.7345 86.7281 85.7216 86.7164 85.7111C86.7047 85.7005 86.691 85.6923 86.6761 85.6872C86.6612 85.682 86.6453 85.6799 86.6296 85.681L85.5073 85.7679C85.4925 85.769 85.478 85.7732 85.4648 85.78C85.4516 85.7869 85.44 85.7964 85.4305 85.808C85.4207 85.8187 85.4132 85.8314 85.4086 85.8452C85.404 85.859 85.4024 85.8736 85.4038 85.8881L85.4472 86.4592Z" fill="white"/>
<path d="M80.5341 92.8754L76.9536 92.2274L79.0378 84.522C79.0378 84.522 78.5067 82.6082 77.9155 80.4138C77.6316 79.3484 77.3344 78.2161 77.0805 77.2074C76.7981 76.2039 76.575 75.1845 76.4125 74.1547C76.3457 72.9256 77.4412 70.9383 77.4412 70.9383L80.0264 70.5208C80.0264 70.5208 82.3844 73.1226 82.5381 78.1092C82.6917 83.0959 80.5341 92.8754 80.5341 92.8754Z" fill="#0047AB"/>
<path d="M85.9382 70.5208C85.9382 70.5208 88.186 74.4353 88.7037 77.3277C89.2214 80.2202 90.6476 92.518 90.6476 92.518L91.4225 92.1306L90.3437 84.7826C90.3437 84.7826 90.7311 76.2723 90.4305 74.5255C90.1299 72.7786 88.1727 70.5175 88.1727 70.5175L85.9382 70.5208Z" fill="#0047AB"/>
<path d="M84.836 70.3337L84.9896 70.1968C84.9896 70.1968 87.174 70.474 89.178 72.9757L88.3998 73.7338L89.7358 74.8026L89.1045 79.9629C89.1045 79.9629 87.0805 73.0859 86.2054 71.4359C85.8041 71.0048 85.3429 70.6336 84.836 70.3337Z" fill="#0047AB"/>
<path opacity="0.2" d="M84.836 70.3337L84.9896 70.2068C84.9896 70.2068 87.174 70.474 89.178 72.9757L88.3998 73.7338L89.7358 74.8026L89.1045 79.9629C89.1045 79.9629 87.0805 73.0859 86.2054 71.4359C85.8041 71.0048 85.3429 70.6336 84.836 70.3337Z" fill="black"/>
<path d="M80.5374 70.5207C80.5374 70.5207 83.0391 73.2829 82.4813 80.5407L80.0331 75.3236L80.9182 73.9008L78.8474 71.9569C78.8474 71.9569 79.9329 69.8961 80.7011 70.0999L80.5374 70.5207Z" fill="#0047AB"/>
<path opacity="0.2" d="M80.5374 70.5207C80.5374 70.5207 83.0391 73.2829 82.4813 80.5407L80.0331 75.3236L80.9182 73.9008L78.8474 71.9569C78.8474 71.9569 79.9329 69.8961 80.7011 70.0999L80.5374 70.5207Z" fill="black"/>
<path d="M85.7445 71.3057L85.17 74.7425L80.6476 70.788C81.6029 69.7325 81.0017 66.9536 80.5341 65.444L81.8166 66.4025L83.7204 67.8287C83.6855 68.222 83.7171 68.6183 83.814 69.0011C83.9576 69.6056 84.2148 70.1767 84.502 70.297L85.7445 71.3057Z" fill="#EBB376"/>
<path opacity="0.2" d="M83.814 68.9944C83.0524 68.8241 82.0571 68.0358 81.8968 67.2609C81.8368 66.9766 81.8099 66.6864 81.8166 66.3959L83.7204 67.8221C83.6855 68.2153 83.7171 68.6117 83.814 68.9944Z" fill="black"/>
<path d="M80.8714 69.9196C80.8714 69.9196 82.8053 71.4125 85.0765 74.5655C85.0765 74.5655 85.2802 71.4192 84.502 70.2903L84.6623 70.0966C85.8517 70.6168 86.887 71.4346 87.6683 72.4713L86.172 71.997L85.1466 74.7692L82.0605 72.2208L79.983 72.5815C79.983 72.5815 80.0732 70.5341 80.8714 69.9196Z" fill="#0047AB"/>
<path opacity="0.7" d="M80.8714 69.9196C80.8714 69.9196 82.8053 71.4125 85.0765 74.5655C85.0765 74.5655 85.2802 71.4192 84.502 70.2903L84.6623 70.0966C85.8517 70.6168 86.887 71.4346 87.6683 72.4713L86.172 71.997L85.1466 74.7692L82.0605 72.2208L79.983 72.5815C79.983 72.5815 80.0732 70.5341 80.8714 69.9196Z" fill="white"/>
<path d="M79.1279 62.418C79.6757 64.8662 79.8527 65.9149 81.3023 67.0505C83.48 68.7573 86.359 67.7185 86.5494 65.1902C86.7231 62.919 85.7979 59.2917 83.2295 58.5636C82.6826 58.389 82.099 58.3637 81.5391 58.4905C80.9792 58.6172 80.4634 58.8913 80.0451 59.2845C79.6267 59.6776 79.3211 60.1754 79.1599 60.7263C78.9986 61.2773 78.9876 61.8613 79.1279 62.418Z" fill="#EBB376"/>
<path d="M82.2909 62.7185C82.3277 62.9289 82.4679 63.0859 82.5982 63.0692C82.7285 63.0525 82.812 62.8755 82.7752 62.6684C82.7385 62.4613 82.5982 62.3043 82.4646 62.3344C82.331 62.3644 82.2542 62.5114 82.2909 62.7185Z" fill="#263238"/>
<path d="M84.8794 62.3612C84.9162 62.5682 85.0531 62.7252 85.1867 62.6952C85.3203 62.6651 85.3971 62.5014 85.3604 62.2944C85.3236 62.0873 85.1867 61.9303 85.0531 61.9437C84.9195 61.957 84.836 62.1507 84.8794 62.3612Z" fill="#263238"/>
<path d="M84.9963 61.9737L85.4606 61.78C85.4606 61.78 85.2769 62.1942 84.9963 61.9737Z" fill="#263238"/>
<path d="M84.168 62.9022C84.4343 63.3567 84.7576 63.7754 85.1299 64.148C85.0376 64.2357 84.9262 64.3009 84.8046 64.3386C84.6829 64.3762 84.5543 64.3853 84.4285 64.3651L84.168 62.9022Z" fill="#D58745"/>
<path d="M81.6764 61.456C81.6924 61.456 81.7082 61.4524 81.7227 61.4455C81.7371 61.4385 81.7498 61.4284 81.7599 61.4159C81.8533 61.2993 81.9742 61.2077 82.1118 61.1494C82.2494 61.0911 82.3993 61.0679 82.5481 61.0819C82.5635 61.0848 82.5794 61.0844 82.5947 61.0808C82.6099 61.0772 82.6243 61.0705 82.6369 61.0611C82.6494 61.0517 82.6599 61.0398 82.6676 61.0261C82.6753 61.0124 82.6801 60.9973 82.6817 60.9817C82.6838 60.9489 82.6738 60.9164 82.6534 60.8905C82.6331 60.8646 82.6039 60.8471 82.5715 60.8414C82.3834 60.8204 82.1931 60.8471 82.018 60.9189C81.8429 60.9906 81.6887 61.1053 81.5695 61.2523C81.5595 61.2647 81.5521 61.279 81.5476 61.2944C81.5432 61.3097 81.5419 61.3258 81.5438 61.3416C81.5457 61.3575 81.5507 61.3728 81.5585 61.3867C81.5664 61.4006 81.5769 61.4128 81.5895 61.4226C81.6134 61.444 81.6443 61.4559 81.6764 61.456Z" fill="#263238"/>
<path d="M85.6977 60.8781C85.7132 60.8797 85.7289 60.8782 85.7438 60.8736C85.7588 60.869 85.7726 60.8614 85.7846 60.8514C85.7958 60.8403 85.8047 60.827 85.8107 60.8124C85.8168 60.7978 85.8199 60.7821 85.8199 60.7663C85.8199 60.7504 85.8168 60.7348 85.8107 60.7201C85.8047 60.7055 85.7958 60.6923 85.7846 60.6811C85.6632 60.524 85.5073 60.3971 85.3288 60.3102C85.1504 60.2233 84.9543 60.1788 84.7558 60.1801C84.7404 60.1812 84.7253 60.1856 84.7117 60.193C84.698 60.2003 84.6861 60.2105 84.6766 60.2228C84.6671 60.2351 84.6604 60.2493 84.6568 60.2643C84.6532 60.2794 84.6528 60.2951 84.6556 60.3103C84.6598 60.3431 84.6763 60.3731 84.7017 60.3941C84.7271 60.4152 84.7596 60.4259 84.7926 60.4239C84.9494 60.4259 85.1037 60.4637 85.2438 60.5343C85.3838 60.6049 85.506 60.7065 85.6009 60.8314C85.6131 60.8452 85.628 60.8564 85.6446 60.8644C85.6613 60.8724 85.6793 60.8771 85.6977 60.8781Z" fill="#263238"/>
<path d="M82.4078 62.3344L82.8721 62.1373C82.8721 62.1373 82.6917 62.5548 82.4078 62.3344Z" fill="#263238"/>
<path d="M80.3838 63.8374C80.3838 63.8374 81.5895 62.0805 80.671 59.4954C80.671 59.4954 83.3965 58.1594 85.4606 60.1901C85.4606 60.1901 83.5401 56.8234 79.5287 58.4366C75.5174 60.0498 78.5267 63.9008 79.0411 64.2215C79.5555 64.5421 80.3838 63.8374 80.3838 63.8374Z" fill="#263238"/>
<path d="M78.637 64.5355C78.7967 64.7478 78.9971 64.9263 79.2265 65.0604C79.4558 65.1946 79.7096 65.2818 79.973 65.317C80.641 65.3972 80.848 64.7125 80.5374 64.0846C80.2602 63.5168 79.5722 62.7953 78.9476 63.0058C78.323 63.2162 78.2261 63.9977 78.637 64.5355Z" fill="#EBB376"/>
<path d="M84.5721 64.9363C84.4368 65.2504 84.3252 65.5741 84.2381 65.9049C84.1781 65.9082 84.1179 65.9082 84.0578 65.9049C83.2428 65.8247 82.8955 65.5174 82.7518 65.2001C82.687 65.045 82.6595 64.8768 82.6717 64.7092C82.6765 64.6136 82.6944 64.5192 82.7251 64.4286C83.2047 64.703 83.7379 64.8704 84.2882 64.9196C84.4653 64.9296 84.5721 64.9363 84.5721 64.9363Z" fill="#263238"/>
<path d="M84.2949 64.9028L84.1914 65.1867C83.4232 65.1066 82.8955 64.9496 82.6784 64.6924C82.6831 64.5969 82.7011 64.5025 82.7318 64.4119C83.2114 64.6862 83.7446 64.8537 84.2949 64.9028Z" fill="white"/>
<path d="M84.0645 65.8882C83.2495 65.8081 82.9021 65.5008 82.7585 65.1835C83.067 65.2215 83.3666 65.313 83.6436 65.454C83.8261 65.5509 83.9733 65.7028 84.0645 65.8882Z" fill="#DE5753"/>
<path opacity="0.2" d="M78.3898 79.826C78.3004 80.0695 78.1339 80.2772 77.9155 80.4172C77.6316 79.3518 77.3344 78.2195 77.0805 77.2108C77.7485 76.4092 78.303 75.7412 78.303 75.7412C78.303 75.7412 79.0645 78.1059 78.3898 79.826Z" fill="black"/>
<path d="M77.4479 70.9382C76.0284 71.1119 71.6898 81.8901 71.9503 83.5935C72.2108 85.2969 81.5428 84.522 81.5428 84.522V81.9268L76.0952 80.828L77.979 77.1273C78.3129 76.0563 78.4521 74.9341 78.3898 73.814C78.2749 72.8013 77.9544 71.8227 77.4479 70.9382Z" fill="#0047AB"/>
<path d="M83.1994 88.4833L76.0384 87.6149C75.974 87.6084 75.9115 87.5889 75.8548 87.5574C75.7981 87.526 75.7484 87.4834 75.7087 87.4321C75.669 87.3809 75.6402 87.3221 75.6239 87.2594C75.6077 87.1966 75.6044 87.1312 75.6143 87.0672L76.8734 77.8588C76.8956 77.7275 76.9679 77.6099 77.0751 77.5308C77.1822 77.4516 77.3159 77.4172 77.4479 77.4346L84.6089 78.303C84.6732 78.3091 84.7357 78.3282 84.7923 78.3593C84.849 78.3904 84.8987 78.4327 84.9384 78.4837C84.9782 78.5347 85.0071 78.5932 85.0233 78.6558C85.0396 78.7183 85.0429 78.7835 85.0331 78.8474L83.7739 88.0591C83.7517 88.1905 83.6794 88.3081 83.5722 88.3872C83.4651 88.4663 83.3314 88.5008 83.1994 88.4833Z" fill="#263238"/>
<path opacity="0.6" d="M83.1994 88.4833L76.0384 87.6149C75.974 87.6084 75.9115 87.5889 75.8548 87.5574C75.7981 87.526 75.7484 87.4834 75.7087 87.4321C75.669 87.3809 75.6402 87.3221 75.6239 87.2594C75.6077 87.1966 75.6044 87.1312 75.6143 87.0672L76.8734 77.8588C76.8956 77.7275 76.9679 77.6099 77.0751 77.5308C77.1822 77.4516 77.3159 77.4172 77.4479 77.4346L84.6089 78.303C84.6732 78.3091 84.7357 78.3282 84.7923 78.3593C84.849 78.3904 84.8987 78.4327 84.9384 78.4837C84.9782 78.5347 85.0071 78.5932 85.0233 78.6558C85.0396 78.7183 85.0429 78.7835 85.0331 78.8474L83.7739 88.0591C83.7517 88.1905 83.6794 88.3081 83.5722 88.3872C83.4651 88.4663 83.3314 88.5008 83.1994 88.4833Z" fill="white"/>
<path opacity="0.2" d="M82.9021 88.4466L76.0384 87.6149C75.974 87.6084 75.9115 87.5889 75.8548 87.5574C75.7981 87.526 75.7484 87.4834 75.7087 87.4321C75.669 87.3809 75.6402 87.3221 75.6239 87.2594C75.6077 87.1966 75.6044 87.1312 75.6143 87.0672L76.8734 77.8588C76.8956 77.7275 76.9679 77.6099 77.0751 77.5308C77.1822 77.4516 77.3159 77.4172 77.4479 77.4346L84.3116 78.2663C84.376 78.2727 84.4384 78.2923 84.4949 78.3237C84.5515 78.3552 84.601 78.3979 84.6404 78.4492C84.6798 78.5005 84.7083 78.5594 84.7241 78.6221C84.74 78.6848 84.7428 78.7502 84.7325 78.814L83.4766 88.0224C83.4529 88.153 83.3802 88.2696 83.2735 88.3484C83.1667 88.4272 83.0339 88.4623 82.9021 88.4466Z" fill="white"/>
<path d="M80.16 82.164C79.9536 82.1371 79.7449 82.1919 79.5783 82.3167C79.4117 82.4415 79.3004 82.6264 79.2682 82.832C79.2537 82.932 79.2597 83.0339 79.2859 83.1314C79.312 83.229 79.3577 83.3202 79.4202 83.3996C79.4826 83.4789 79.5606 83.5447 79.6493 83.593C79.738 83.6413 79.8357 83.671 79.9362 83.6804C80.1418 83.7047 80.3488 83.6488 80.5143 83.5244C80.6797 83.4 80.7909 83.2166 80.8247 83.0124C80.724 83.0035 80.6263 82.9741 80.5375 82.9259C80.4487 82.8778 80.3707 82.8119 80.3084 82.7323C80.2461 82.6528 80.2008 82.5613 80.1752 82.4636C80.1497 82.3658 80.1445 82.2639 80.16 82.164Z" fill="#263238"/>
<path opacity="0.3" d="M82.5882 78.8006L78.824 78.343C78.7345 78.3326 78.6503 78.295 78.5829 78.2352C78.5154 78.1755 78.4678 78.0966 78.4466 78.009L78.3297 77.5314L83.3397 78.1392L83.0825 78.5701C83.0335 78.6544 82.9598 78.7216 82.8715 78.7628C82.7831 78.804 82.6842 78.8172 82.5882 78.8006Z" fill="black"/>
<path d="M83.5401 81.6095L81.4092 82.2208L80.9616 83.6302C81.1653 84.7792 83.3697 84.2982 83.3697 84.2982L83.824 84.5821C83.9087 84.635 84.0051 84.6663 84.1048 84.6733C84.2044 84.6803 84.3043 84.6627 84.3956 84.6222C84.4869 84.5817 84.5668 84.5194 84.6285 84.4408C84.6901 84.3622 84.7315 84.2696 84.7492 84.1713L84.983 82.8353C85.0024 82.7259 84.9916 82.6133 84.9515 82.5097C84.9115 82.406 84.8438 82.3154 84.7558 82.2475L84.0878 81.7231C84.0123 81.6617 83.9231 81.6193 83.8278 81.5996C83.7325 81.5798 83.6338 81.5832 83.5401 81.6095Z" fill="#EBB376"/>
<path d="M73.1059 79.158C72.3578 81.2054 71.8568 82.9956 71.9503 83.6102C72.2075 85.3136 81.5428 84.5387 81.5428 84.5387V81.9435L76.0952 80.828L73.1059 79.158Z" fill="#0047AB"/>
<path d="M93.4732 51.3759H89.3751C89.19 51.3759 89.0067 51.4123 88.8357 51.4831C88.6647 51.554 88.5093 51.6578 88.3784 51.7887C88.2475 51.9196 88.1437 52.0749 88.0729 52.2459C88.002 52.417 87.9656 52.6002 87.9656 52.7853V56.78C87.9656 56.9649 88.0021 57.148 88.0729 57.3188C88.1438 57.4897 88.2477 57.6448 88.3786 57.7754C88.5095 57.9061 88.6649 58.0096 88.8359 58.08C89.0069 58.1505 89.1901 58.1866 89.3751 58.1861H90.3403L90.1032 59.6758L91.2855 58.1861H93.4732C93.8462 58.1861 94.2038 58.038 94.4675 57.7743C94.7312 57.5106 94.8794 57.1529 94.8794 56.78V52.772C94.8759 52.4011 94.7263 52.0465 94.463 51.7851C94.1998 51.5238 93.8442 51.3767 93.4732 51.3759Z" fill="#0047AB"/>
<path d="M89.9996 53.9777C90.357 53.3832 91.0517 53.6003 91.4191 54.0545C91.7698 53.5903 92.4612 53.3565 92.8319 53.941C93.4565 54.9263 92.2074 55.8648 91.6162 56.2322L91.4459 56.3391L91.2755 56.2389C90.6743 55.8849 89.4018 54.9797 89.9996 53.9777Z" fill="white"/>
<path d="M46.3525 69.2649C48.4467 71.2121 48.6905 77.9489 48.8642 80.8113C48.9677 82.4813 49.2249 84.2682 49.4587 85.9649C49.7059 87.7151 49.9497 89.4819 50.1802 91.2421C50.2128 91.459 50.1631 91.6803 50.0408 91.8624C49.9185 92.0445 49.7325 92.1743 49.5194 92.2262C49.3063 92.2782 49.0815 92.2485 48.8891 92.143C48.6968 92.0375 48.5509 91.8639 48.4801 91.6563C47.8756 89.9529 47.3378 88.2395 46.8702 86.496C46.2406 84.2977 45.7938 82.0511 45.5342 79.7792C45.1768 77.311 44.8662 74.6991 44.1314 72.3377C44.069 72.1628 43.9954 71.9921 43.911 71.8267C43.9344 71.8267 43.9511 71.8735 43.9845 71.8902C42.2944 70.2803 44.5623 67.7519 46.3492 69.2649H46.3525Z" fill="#263238"/>
<path opacity="0.7" d="M46.3525 69.2649C48.4467 71.2121 48.6905 77.9489 48.8642 80.8113C48.9677 82.4813 49.2249 84.2682 49.4587 85.9649C49.7059 87.7151 49.9497 89.4819 50.1802 91.2421C50.2128 91.459 50.1631 91.6803 50.0408 91.8624C49.9185 92.0445 49.7325 92.1743 49.5194 92.2262C49.3063 92.2782 49.0815 92.2485 48.8891 92.143C48.6968 92.0375 48.5509 91.8639 48.4801 91.6563C47.8756 89.9529 47.3378 88.2395 46.8702 86.496C46.2406 84.2977 45.7938 82.0511 45.5342 79.7792C45.1768 77.311 44.8662 74.6991 44.1314 72.3377C44.069 72.1628 43.9954 71.9921 43.911 71.8267C43.9344 71.8267 43.9511 71.8735 43.9845 71.8902C42.2944 70.2803 44.5623 67.7519 46.3492 69.2649H46.3525Z" fill="white"/>
<path d="M50.454 91.0919L51.7099 93.2862L48.9143 93.4933C48.9143 93.4933 47.9123 91.4693 48.9778 90.995L50.454 91.0919Z" fill="#263238"/>
<path d="M51.6397 95.7879L49.1782 95.15L48.9143 93.4933L51.7099 93.2863L51.6397 95.7879Z" fill="#263238"/>
<path d="M34.8395 72.5181C33.0627 73.991 30.8783 75.641 29.6959 77.5281C29.6959 77.4045 29.6559 77.3711 29.6692 77.4312C30.0466 78.3664 30.8315 79.1513 31.5196 79.9496C32.4581 80.9783 33.4768 82.0137 34.4822 83.0224C34.627 83.1754 34.7125 83.375 34.7233 83.5854C34.7341 83.7958 34.6695 84.0032 34.5411 84.1702C34.4127 84.3372 34.2289 84.453 34.0228 84.4967C33.8167 84.5403 33.6018 84.5091 33.4167 84.4085C31.4204 83.3045 29.587 81.9287 27.9692 80.3203C26.9672 79.2983 26.1221 77.8988 26.6766 76.4159C27.1776 74.9396 28.2464 73.7639 29.2584 72.6984C30.3302 71.6075 31.4861 70.6024 32.7153 69.6924C34.6258 68.3564 36.6465 71.0585 34.8395 72.5214V72.5181Z" fill="#263238"/>
<path opacity="0.7" d="M34.8395 72.5181C33.0627 73.991 30.8783 75.641 29.6959 77.5281C29.6959 77.4045 29.6559 77.3711 29.6692 77.4312C30.0466 78.3664 30.8315 79.1513 31.5196 79.9496C32.4581 80.9783 33.4768 82.0137 34.4822 83.0224C34.627 83.1754 34.7125 83.375 34.7233 83.5854C34.7341 83.7958 34.6695 84.0032 34.5411 84.1702C34.4127 84.3372 34.2289 84.453 34.0228 84.4967C33.8167 84.5403 33.6018 84.5091 33.4167 84.4085C31.4204 83.3045 29.587 81.9287 27.9692 80.3203C26.9672 79.2983 26.1221 77.8988 26.6766 76.4159C27.1776 74.9396 28.2464 73.7639 29.2584 72.6984C30.3302 71.6075 31.4861 70.6024 32.7153 69.6924C34.6258 68.3564 36.6465 71.0585 34.8395 72.5214V72.5181Z" fill="white"/>
<path d="M37.0473 84.9429C37.0473 84.9429 37.2009 87.5581 38.4801 92.1406C39.2811 94.9749 40.2537 97.7578 41.3926 100.474C42.0306 102.007 42.762 103.634 43.6004 105.347C43.9778 106.125 44.3819 106.917 44.8061 107.732C45.2971 121.606 53.0826 135.714 53.0826 135.714C53.5135 135.938 55.0198 135.694 55.0098 135.257C53.8575 133.423 51.5863 115.644 50.1234 107.201C50.0332 106.055 49.9029 104.826 49.7393 103.557C49.3118 100.153 48.6805 96.4492 48.0693 93.2027C47.104 88.0758 46.1822 84.0511 46.1822 84.0511L43.6137 84.3016L37.0473 84.9429Z" fill="#263238"/>
<path opacity="0.7" d="M37.0473 84.9429C37.0473 84.9429 37.2009 87.5581 38.4801 92.1406C39.2811 94.9749 40.2537 97.7578 41.3926 100.474C42.0306 102.007 42.762 103.634 43.6004 105.347C43.9778 106.125 44.3819 106.917 44.8061 107.732C45.2971 121.606 53.0826 135.714 53.0826 135.714C53.5135 135.938 55.0198 135.694 55.0098 135.257C53.8575 133.423 51.5863 115.644 50.1234 107.201C50.0332 106.055 49.9029 104.826 49.7393 103.557C49.3118 100.153 48.6805 96.4492 48.0693 93.2027C47.104 88.0758 46.1822 84.0511 46.1822 84.0511L43.6137 84.3016L37.0473 84.9429Z" fill="white"/>
<path d="M33.9878 104.151C34.1949 105.644 34.4588 107.237 34.7894 108.941C32.0072 118.223 37.7253 136.329 37.7253 136.329C38.6939 136.519 39.5523 136.392 39.9865 136.068C38.9077 130.611 39.6825 116.422 40.5209 107.942C40.5944 107.174 40.6879 106.326 40.7914 105.424C40.9651 103.894 41.1688 102.207 41.3893 100.467C41.7567 97.5514 42.1742 94.4819 42.5483 91.7632C43.0058 88.4733 43.4066 85.691 43.607 84.2949C43.6972 83.6804 43.7473 83.333 43.7473 83.333L35.7146 84.2014C35.7146 84.2014 33.6739 86.4926 33.3766 93.6436C33.2639 97.1574 33.4685 100.674 33.9878 104.151Z" fill="#263238"/>
<path opacity="0.7" d="M33.9878 104.151C34.1949 105.644 34.4588 107.237 34.7894 108.941C32.0072 118.223 37.7253 136.329 37.7253 136.329C38.6939 136.519 39.5523 136.392 39.9865 136.068C38.9077 130.611 39.6825 116.422 40.5209 107.942C40.5944 107.174 40.6879 106.326 40.7914 105.424C40.9651 103.894 41.1688 102.207 41.3893 100.467C41.7567 97.5514 42.1742 94.4819 42.5483 91.7632C43.0058 88.4733 43.4066 85.691 43.607 84.2949C43.6972 83.6804 43.7473 83.333 43.7473 83.333L35.7146 84.2014C35.7146 84.2014 33.6739 86.4926 33.3766 93.6436C33.2639 97.1574 33.4685 100.674 33.9878 104.151Z" fill="white"/>
<path d="M45.2102 67.8688C47.772 68.7238 47.9524 70.5408 49.4186 74.3784C48.9445 75.0728 48.3211 75.6524 47.5942 76.0748C46.8672 76.4973 46.055 76.7519 45.2169 76.82C45.2169 76.82 41.5496 69.983 45.2102 67.8688Z" fill="#263238"/>
<path opacity="0.8" d="M49.432 74.3751C48.7006 75.4428 47.6275 76.2297 46.3893 76.6063C46.014 76.7287 45.6244 76.8017 45.2303 76.8234L45.1735 76.7098C44.8829 76.1353 43.587 73.4566 43.597 71.0986C43.597 69.786 44.0112 68.5669 45.2236 67.8655C47.762 68.7205 47.9524 70.5542 49.432 74.3751Z" fill="white"/>
<path opacity="0.1" d="M47.9925 75.818C47.4983 76.1639 46.9528 76.4299 46.3759 76.6062C45.781 75.4267 45.3753 74.161 45.1735 72.8554C45.559 72.8145 45.9481 72.8876 46.2925 73.0658C46.6368 73.2439 46.9213 73.5191 47.1107 73.8574C47.4984 74.4646 47.7955 75.1251 47.9925 75.818Z" fill="black"/>
<path d="M43.6672 57.0706C43.6672 57.0706 46.0486 63.0258 43.6672 68.2095C41.2857 73.3931 34.6024 70.2803 33.9411 69.0378C33.2798 67.7953 34.8262 65.2636 34.8262 62.9456C34.8262 60.6277 34.2651 59.3651 34.6859 57.4613C35.1067 55.5575 43.6672 57.0706 43.6672 57.0706Z" fill="#263238"/>
<path opacity="0.2" d="M33.9878 104.151C36.1855 104.891 38.4752 105.321 40.7914 105.431C40.9651 103.901 41.1688 102.214 41.3893 100.474C42.0272 102.007 42.7587 103.634 43.597 105.347C45.7387 105.153 47.8229 104.549 49.7359 103.567C49.3084 100.163 48.6772 96.4593 48.0659 93.2128C47.2156 92.7137 46.296 92.3434 45.3372 92.1139C44.4251 91.8932 43.49 91.781 42.5516 91.7799C41.1856 91.7703 39.8219 91.8945 38.4801 92.1507C36.7278 92.4747 35.014 92.9807 33.3666 93.6604C33.2583 97.1689 33.4662 100.68 33.9878 104.151Z" fill="black"/>
<path d="M33.9411 68.0625C34.3836 69.8317 34.7303 71.6234 34.9798 73.4299C35.1234 74.4319 35.2637 75.5575 35.3773 76.7699C35.6119 79.2352 35.7011 81.7122 35.6445 84.188H46.2223C46.2223 84.188 47.8923 71.83 45.1334 67.822C45.1334 67.8321 39.7126 65.277 33.9411 68.0625Z" fill="#263238"/>
<path opacity="0.5" d="M33.9411 68.0625C34.3836 69.8317 34.7303 71.6234 34.9798 73.4299C35.1234 74.4319 35.2637 75.5575 35.3773 76.7699C35.6119 79.2352 35.7011 81.7122 35.6445 84.188H46.2223C46.2223 84.188 47.8923 71.83 45.1334 67.822C45.1334 67.8321 39.7126 65.277 33.9411 68.0625Z" fill="white"/>
<path opacity="0.1" d="M34.9798 73.4299C35.1234 74.4319 35.2637 75.5575 35.3773 76.7699C36.1537 74.9648 36.2603 72.9419 35.6779 71.0652L34.9798 73.4299Z" fill="black"/>
<path d="M39.412 66.0352C36.0954 66.0352 35.6779 68.7639 35.6779 68.7639L37.2276 68.0959L41.7867 71.142L42.9056 68.0659L44.3118 68.3264C44.3118 68.3264 42.2944 66.0385 39.412 66.0352Z" fill="#263238"/>
<path opacity="0.8" d="M39.412 66.0352C36.0954 66.0352 35.6779 68.7639 35.6779 68.7639L37.2276 68.0959L41.7867 71.142L42.9056 68.0659L44.3118 68.3264C44.3118 68.3264 42.2944 66.0385 39.412 66.0352Z" fill="white"/>
<path d="M41.6364 70.9616L37.3612 67.2409C38.4 66.1754 37.8689 63.2329 37.4347 61.6464L40.6779 64.2516C40.4608 65.494 40.5142 66.8167 42.3278 67.2409C42.3278 67.2409 41.6331 70.9516 41.6364 70.9616Z" fill="#263238"/>
<path opacity="0.7" d="M41.6364 70.9616L37.3612 67.2409C38.4 66.1754 37.8689 63.2329 37.4347 61.6464L40.6779 64.2516C40.4608 65.494 40.5142 66.8167 42.3278 67.2409C42.3278 67.2409 41.6331 70.9516 41.6364 70.9616Z" fill="white"/>
<path opacity="0.1" d="M38.744 62.7119L40.6645 64.2517C40.6093 64.5424 40.5802 64.8375 40.5777 65.1334C39.8896 65.0332 38.9077 64.2851 38.7741 63.5736C38.7126 63.2905 38.7025 62.9986 38.744 62.7119Z" fill="black"/>
<path d="M36.072 58.45C36.5563 61.0318 36.7066 62.124 38.1795 63.3698C40.394 65.2302 43.4367 64.2449 43.7273 61.613C43.9911 59.2449 43.1528 55.424 40.4942 54.5723C39.9293 54.3698 39.3206 54.3221 38.7311 54.4342C38.1417 54.5462 37.5929 54.8139 37.1417 55.2095C36.6906 55.6052 36.3535 56.1142 36.1654 56.684C35.9773 57.2538 35.9451 57.8636 36.072 58.45Z" fill="#263238"/>
<path opacity="0.7" d="M36.072 58.45C36.5563 61.0318 36.7066 62.124 38.1795 63.3698C40.394 65.2302 43.4367 64.2449 43.7273 61.613C43.9911 59.2449 43.1528 55.424 40.4942 54.5723C39.9293 54.3698 39.3206 54.3221 38.7311 54.4342C38.1417 54.5462 37.5929 54.8139 37.1417 55.2095C36.6906 55.6052 36.3535 56.1142 36.1654 56.684C35.9773 57.2538 35.9451 57.8636 36.072 58.45Z" fill="white"/>
<path d="M38.2898 56.5762C36.8669 58.4132 39.7928 60.5275 36.8669 60.4039C33.9411 60.2803 35.1301 56.1521 36.8669 55.2135C38.6037 54.275 38.2898 56.5762 38.2898 56.5762Z" fill="#263238"/>
<path d="M40.1602 58.8709C40.1902 59.088 40.3305 59.2583 40.4708 59.2483C40.6111 59.2383 40.6979 59.0512 40.6645 58.8341C40.6311 58.617 40.4942 58.4467 40.3572 58.4567C40.2203 58.4667 40.1268 58.6504 40.1602 58.8709Z" fill="#263238"/>
<path d="M42.7954 58.7139C42.8255 58.9343 42.9658 59.1013 43.106 59.0913C43.2463 59.0813 43.3332 58.8943 43.3031 58.6772C43.273 58.4601 43.1328 58.2897 42.9925 58.2997C42.8522 58.3098 42.752 58.4968 42.7954 58.7139Z" fill="#263238"/>
<path d="M42.9324 58.3165L43.42 58.1161C43.42 58.1161 43.2196 58.557 42.9324 58.3165Z" fill="#263238"/>
<path opacity="0.2" d="M42.1141 59.118C42.3767 59.6024 42.6999 60.0514 43.076 60.454C42.9759 60.542 42.8572 60.6061 42.7287 60.6414C42.6003 60.6767 42.4655 60.6823 42.3345 60.6578L42.1141 59.118Z" fill="black"/>
<path d="M41.2189 61.5629C41.34 61.5747 41.4619 61.5747 41.583 61.5629C41.5912 61.5621 41.5992 61.5596 41.6065 61.5555C41.6137 61.5515 41.62 61.546 41.625 61.5395C41.63 61.5329 41.6336 61.5253 41.6356 61.5173C41.6376 61.5092 41.6379 61.5009 41.6364 61.4927C41.634 61.4762 41.6254 61.4612 41.6124 61.4507C41.5994 61.4402 41.583 61.4349 41.5663 61.4359C41.2925 61.4564 41.0175 61.4155 40.7615 61.3161C40.5055 61.2167 40.275 61.0614 40.0867 60.8615C40.0808 60.8555 40.0738 60.8508 40.066 60.8475C40.0583 60.8443 40.05 60.8427 40.0416 60.8427C40.0332 60.8427 40.0249 60.8443 40.0172 60.8475C40.0094 60.8508 40.0024 60.8555 39.9965 60.8615C39.9905 60.8674 39.9858 60.8744 39.9826 60.8821C39.9794 60.8899 39.9777 60.8982 39.9777 60.9065C39.9777 60.9149 39.9794 60.9232 39.9826 60.931C39.9858 60.9387 39.9905 60.9457 39.9965 60.9516C40.3164 61.2969 40.7508 61.5141 41.2189 61.5629Z" fill="#263238"/>
<path d="M35.8215 60.9283C35.9271 61.156 36.0791 61.3592 36.2677 61.5249C36.4564 61.6905 36.6775 61.8149 36.917 61.8902C37.5182 62.0505 37.7787 61.3625 37.585 60.6745C37.4047 60.0532 36.8769 59.2249 36.2891 59.3752C35.7013 59.5255 35.5176 60.3237 35.8215 60.9283Z" fill="#263238"/>
<path d="M39.412 57.6952C39.4289 57.6967 39.4458 57.6941 39.4615 57.6877C39.4772 57.6813 39.4911 57.6713 39.5022 57.6585C39.6025 57.5376 39.7314 57.4437 39.8772 57.3854C40.0231 57.3271 40.1812 57.3061 40.3372 57.3245C40.3532 57.3279 40.3698 57.3279 40.3859 57.3246C40.402 57.3213 40.4172 57.3148 40.4306 57.3054C40.4441 57.296 40.4555 57.284 40.4641 57.27C40.4727 57.2561 40.4784 57.2405 40.4808 57.2243C40.4841 57.1897 40.4748 57.155 40.4545 57.1268C40.4343 57.0985 40.4044 57.0786 40.3706 57.0707C40.1747 57.0425 39.9749 57.0638 39.7894 57.1327C39.6039 57.2015 39.4386 57.3157 39.3085 57.4648C39.2852 57.489 39.2722 57.5213 39.2722 57.555C39.2722 57.5886 39.2852 57.6209 39.3085 57.6451C39.3197 57.6619 39.3352 57.6755 39.3534 57.6843C39.3716 57.6931 39.3918 57.6969 39.412 57.6952Z" fill="#263238"/>
<path d="M43.3866 57.448C43.4194 57.45 43.4518 57.4392 43.4768 57.4179C43.4887 57.4061 43.4982 57.3921 43.5046 57.3766C43.5111 57.3611 43.5144 57.3445 43.5144 57.3277C43.5144 57.311 43.5111 57.2944 43.5046 57.2789C43.4982 57.2634 43.4887 57.2494 43.4768 57.2376C43.3448 57.0776 43.1774 56.9506 42.9879 56.8665C42.7983 56.7825 42.5918 56.7437 42.3846 56.7533C42.3683 56.7547 42.3525 56.7597 42.3383 56.7678C42.3241 56.7759 42.3118 56.787 42.3023 56.8004C42.2927 56.8137 42.2862 56.8289 42.2831 56.845C42.2801 56.8611 42.2805 56.8776 42.2844 56.8935C42.2902 56.9275 42.3085 56.958 42.3357 56.979C42.3629 57.0001 42.3971 57.0101 42.4314 57.0071C42.5955 57.0029 42.7585 57.0362 42.9078 57.1045C43.0572 57.1728 43.1889 57.2743 43.2931 57.4012C43.3171 57.4283 43.3506 57.445 43.3866 57.448Z" fill="#263238"/>
<path d="M40.2971 58.4735L40.7881 58.2831C40.7881 58.2831 40.5843 58.7139 40.2971 58.4735Z" fill="#263238"/>
<path d="M39.5256 55.2804C39.5256 55.2804 38.7473 58.7406 36.1856 59.128C33.6238 59.5155 34.2383 55.758 37.6318 54.3752C41.0252 52.9925 43.7774 55.7446 43.9344 56.4861C43.9664 56.7164 43.9344 56.951 43.8419 57.1643C43.7494 57.3775 43.6 57.5612 43.41 57.6952C43.41 57.6952 42.1875 55.3472 39.5256 55.2804Z" fill="#263238"/>
<path opacity="0.7" d="M35.8215 60.9283C35.9271 61.156 36.0791 61.3592 36.2677 61.5249C36.4564 61.6905 36.6775 61.8149 36.917 61.8902C37.5182 62.0505 37.7787 61.3625 37.585 60.6745C37.4047 60.0532 36.8769 59.2249 36.2891 59.3752C35.7013 59.5255 35.5176 60.3237 35.8215 60.9283Z" fill="white"/>
<path d="M37.5282 138.704H37.9758L38.0994 138.152L39.5823 138.82H43.3365C43.3365 138.82 43.931 138.219 42.1441 137.742C42.0569 137.716 41.972 137.684 41.8903 137.645C40.9384 137.197 39.5823 135.688 39.5823 135.688H37.5216C37.4601 135.783 37.4043 135.882 37.3546 135.985C37.1274 136.439 36.74 137.391 37.5282 138.704Z" fill="#263238"/>
<path d="M37.3546 135.985C37.6251 135.681 38.8642 137.014 39.7694 137.468C40.5777 137.869 41.4895 138.049 41.8903 137.638C40.9384 137.191 39.4387 135.24 39.4387 135.24H37.7687C37.7687 135.24 37.4514 135.791 37.3546 135.985Z" fill="#263238"/>
<path opacity="0.7" d="M37.3546 135.985C37.6251 135.681 38.8642 137.014 39.7694 137.468C40.5777 137.869 41.4895 138.049 41.8903 137.638C40.9384 137.191 39.4387 135.24 39.4387 135.24H37.7687C37.7687 135.24 37.4514 135.791 37.3546 135.985Z" fill="white"/>
<path d="M53.1661 138.704H53.6137L53.7373 138.152L55.2202 138.82H58.971C58.971 138.82 59.5689 138.219 57.782 137.742C57.6946 137.717 57.6097 137.685 57.5282 137.645C56.5763 137.197 55.2202 135.688 55.2202 135.688H53.1594C53.0959 135.783 53.039 135.882 52.9891 135.985C52.772 136.439 52.3779 137.391 53.1661 138.704Z" fill="#263238"/>
<path d="M52.9891 135.985C53.263 135.681 54.4988 137.014 55.4073 137.468C56.2155 137.869 57.124 138.049 57.5282 137.638C56.5763 137.191 55.0766 135.24 55.0766 135.24H53.4066C53.4066 135.24 53.086 135.791 52.9891 135.985Z" fill="#263238"/>
<path opacity="0.7" d="M52.9891 135.985C53.263 135.681 54.4988 137.014 55.4073 137.468C56.2155 137.869 57.124 138.049 57.5282 137.638C56.5763 137.191 55.0766 135.24 55.0766 135.24H53.4066C53.4066 135.24 53.086 135.791 52.9891 135.985Z" fill="white"/>
<path d="M46.3225 83.3397H35.6578L35.3706 84.7125C35.3706 84.7125 31.4561 90.1366 33.4401 103.657C33.4401 103.657 42.0205 104.659 50.0967 102.912C50.0967 102.912 48.283 89.0244 46.3893 84.492L46.3225 83.3397Z" fill="#263238"/>
<path d="M38.8375 84.522H35.2604L35.4775 83.5H38.8375V84.522Z" fill="#263238"/>
<path d="M45.3372 83.5H46.4093L46.5028 84.522H45.3372V83.5Z" fill="#263238"/>
<path d="M44.9798 83.5H39.1849V84.5187H44.9798V83.5Z" fill="#263238"/>
<path opacity="0.6" d="M38.8375 84.522H35.2604L35.4775 83.5H38.8375V84.522Z" fill="white"/>
<path opacity="0.6" d="M45.3372 83.5H46.4093L46.5028 84.522H45.3372V83.5Z" fill="white"/>
<path opacity="0.6" d="M44.9798 83.5H39.1849V84.5187H44.9798V83.5Z" fill="white"/>
<path d="M41.7734 84.5989H43.3565C43.4598 84.5989 43.5436 84.5151 43.5436 84.4118V83.6102C43.5436 83.5069 43.4598 83.4232 43.3565 83.4232H41.7734C41.6701 83.4232 41.5863 83.5069 41.5863 83.6102V84.4118C41.5863 84.5151 41.6701 84.5989 41.7734 84.5989Z" fill="white"/>
<path d="M34.6024 67.822C33.3299 67.8888 31.0186 70.0832 29.078 72.5782C30.0917 73.7895 31.202 74.9166 32.398 75.9482L36.072 73.3497C36.072 73.3497 36.5062 69.2549 34.6024 67.822Z" fill="#263238"/>
<path opacity="0.8" d="M34.6024 67.822C33.3299 67.8888 31.0186 70.0832 29.078 72.5782C30.0917 73.7895 31.202 74.9166 32.398 75.9482L36.072 73.3497C36.072 73.3497 36.5062 69.2549 34.6024 67.822Z" fill="white"/>
<path opacity="0.6" d="M41.6966 72.0639C41.6959 72.1056 41.7077 72.1466 41.7304 72.1817C41.7531 72.2167 41.7857 72.2442 41.8241 72.2607C41.8625 72.2771 41.9049 72.2817 41.9459 72.274C41.987 72.2663 42.0248 72.2465 42.0545 72.2172C42.0843 72.1879 42.1047 72.1504 42.1131 72.1095C42.1215 72.0686 42.1175 72.0261 42.1017 71.9875C42.0859 71.9489 42.0589 71.9158 42.0242 71.8925C41.9896 71.8692 41.9487 71.8568 41.907 71.8568C41.8517 71.8568 41.7987 71.8785 41.7594 71.9173C41.72 71.956 41.6974 72.0087 41.6966 72.0639Z" fill="white"/>
<path opacity="0.6" d="M42.3211 75.3304C42.4355 75.3304 42.5282 75.2377 42.5282 75.1233C42.5282 75.009 42.4355 74.9163 42.3211 74.9163C42.2068 74.9163 42.1141 75.009 42.1141 75.1233C42.1141 75.2377 42.2068 75.3304 42.3211 75.3304Z" fill="white"/>
<path opacity="0.6" d="M42.565 78.5234C42.6793 78.5234 42.772 78.4307 42.772 78.3163C42.772 78.202 42.6793 78.1093 42.565 78.1093C42.4506 78.1093 42.3579 78.202 42.3579 78.3163C42.3579 78.4307 42.4506 78.5234 42.565 78.5234Z" fill="white"/>
<path opacity="0.6" d="M42.565 81.9168C42.6793 81.9168 42.772 81.8241 42.772 81.7098C42.772 81.5954 42.6793 81.5027 42.565 81.5027C42.4506 81.5027 42.3579 81.5954 42.3579 81.7098C42.3579 81.8241 42.4506 81.9168 42.565 81.9168Z" fill="white"/>
<path d="M36.917 85.4106L36.7801 84.6056C36.7542 84.4565 36.6932 84.3156 36.602 84.1948C36.5108 84.074 36.3921 83.9767 36.2557 83.9109L34.9631 83.2863C34.7087 83.1638 34.4286 83.1038 34.1462 83.1114C33.8639 83.1189 33.5874 83.1938 33.3399 83.3297L33.0293 83.5034C33.1662 84.8394 34.3085 86.2088 34.3085 86.2088L34.5924 86.633C34.6478 86.7215 34.7203 86.7981 34.8056 86.8584C34.8908 86.9186 34.9872 86.9613 35.0892 86.984C35.1911 87.0067 35.2965 87.0089 35.3993 86.9905C35.5021 86.9721 35.6002 86.9335 35.6879 86.8768L36.5363 86.3257C36.6815 86.2264 36.7949 86.0871 36.8625 85.9247C36.93 85.7622 36.949 85.5836 36.917 85.4106Z" fill="#263238"/>
<path opacity="0.7" d="M36.917 85.4106L36.7801 84.6056C36.7542 84.4565 36.6932 84.3156 36.602 84.1948C36.5108 84.074 36.3921 83.9767 36.2557 83.9109L34.9631 83.2863C34.7087 83.1638 34.4286 83.1038 34.1462 83.1114C33.8639 83.1189 33.5874 83.1938 33.3399 83.3297L33.0293 83.5034C33.1662 84.8394 34.3085 86.2088 34.3085 86.2088L34.5924 86.633C34.6478 86.7215 34.7203 86.7981 34.8056 86.8584C34.8908 86.9186 34.9872 86.9613 35.0892 86.984C35.1911 87.0067 35.2965 87.0089 35.3993 86.9905C35.5021 86.9721 35.6002 86.9335 35.6879 86.8768L36.5363 86.3257C36.6815 86.2264 36.7949 86.0871 36.8625 85.9247C36.93 85.7622 36.949 85.5836 36.917 85.4106Z" fill="white"/>
<g opacity="0.7">
<path d="M50.454 91.0919L51.7099 93.2862L48.9143 93.4933C48.9143 93.4933 47.9123 91.4693 48.9778 90.995L50.454 91.0919Z" fill="white"/>
<path d="M51.6397 95.7879L49.1782 95.15L48.9143 93.4933L51.7099 93.2863L51.6397 95.7879Z" fill="white"/>
</g>
</svg>
