<svg width="263" height="105" viewBox="0 0 263 105" fill="none" xmlns="http://www.w3.org/2000/svg">
<path d="M0 80V0L25 25V80H0Z" fill="#0047AB"/>
<path d="M25 50L50 25V80L25 105V50Z" fill="#E1B12C"/>
<path d="M25 50L50 25H35L10 50H25Z" fill="#2D3436"/>
<path d="M125.42 75H115.422V56.5283C115.422 51.7676 113.687 49.3872 110.217 49.3872C108.44 49.3872 107.001 50.0537 105.901 51.3867C104.801 52.7197 104.25 54.4124 104.25 56.4648V75H94.2212V26.8848H104.25V47.3242H104.377C106.832 43.5791 110.164 41.7065 114.375 41.7065C121.738 41.7065 125.42 46.1499 125.42 55.0366V75ZM138.464 37.3584C136.772 37.3584 135.386 36.8612 134.307 35.8667C133.228 34.8511 132.688 33.6133 132.688 32.1533C132.688 30.651 133.228 29.4238 134.307 28.4717C135.386 27.5195 136.772 27.0435 138.464 27.0435C140.178 27.0435 141.564 27.5195 142.622 28.4717C143.701 29.4238 144.241 30.651 144.241 32.1533C144.241 33.6768 143.701 34.9251 142.622 35.8984C141.564 36.8717 140.178 37.3584 138.464 37.3584ZM143.416 75H133.386V42.5H143.416V75ZM173.059 51.5454C171.853 50.8895 170.446 50.5615 168.838 50.5615C166.659 50.5615 164.955 51.3656 163.728 52.9736C162.501 54.5605 161.887 56.7293 161.887 59.48V75H151.858V42.5H161.887V48.5303H162.014C163.601 44.1292 166.458 41.9287 170.583 41.9287C171.641 41.9287 172.467 42.0557 173.059 42.3096V51.5454ZM187.786 75H177.756V26.8848H187.786V75ZM225.427 61.6064H204.226C204.565 66.3249 207.537 68.6841 213.145 68.6841C216.72 68.6841 219.862 67.8377 222.571 66.145V73.3813C219.566 74.9894 215.662 75.7935 210.859 75.7935C205.612 75.7935 201.539 74.3441 198.64 71.4453C195.741 68.5254 194.292 64.4629 194.292 59.2578C194.292 53.8623 195.858 49.5882 198.989 46.4355C202.121 43.2829 205.972 41.7065 210.542 41.7065C215.282 41.7065 218.942 43.1136 221.523 45.9277C224.126 48.7419 225.427 52.561 225.427 57.3853V61.6064ZM216.128 55.4492C216.128 50.7943 214.245 48.4668 210.479 48.4668C208.87 48.4668 207.474 49.1333 206.289 50.4663C205.125 51.7993 204.417 53.4603 204.163 55.4492H216.128ZM262.339 42.5L249.136 77.6025C245.962 86.0449 241.18 90.2661 234.79 90.2661C232.357 90.2661 230.357 89.991 228.792 89.4409V81.4429C230.125 82.2257 231.574 82.6172 233.14 82.6172C235.721 82.6172 237.52 81.4006 238.535 78.9673L240.249 74.9365L227.046 42.5H238.154L244.216 62.2729C244.597 63.5002 244.893 64.9495 245.105 66.6211H245.232C245.422 65.3939 245.771 63.9657 246.279 62.3364L252.405 42.5H262.339Z" fill="#0047AB"/>
</svg>
