<svg width="36" height="30" viewBox="0 0 36 30" fill="none" xmlns="http://www.w3.org/2000/svg">
<path d="M18 30C15.925 30 13.975 29.6063 12.15 28.8188C10.325 28.0312 8.7375 26.9625 7.3875 25.6125C6.0375 24.2625 4.96875 22.675 4.18125 20.85C3.39375 19.025 3 17.075 3 15H6C6 16.65 6.3125 18.2063 6.9375 19.6688C7.5625 21.1313 8.41875 22.4062 9.50625 23.4937C10.5938 24.5812 11.8688 25.4437 13.3313 26.0812C14.7937 26.7188 16.35 27.0375 18 27.0375C21.35 27.0375 24.1875 25.875 26.5125 23.55C28.8375 21.225 30 18.3875 30 15.0375C30 11.6875 28.8375 8.85 26.5125 6.525C24.1875 4.2 21.35 3.0375 18 3.0375C15.775 3.0375 13.7563 3.58125 11.9438 4.66875C10.1313 5.75625 8.7 7.2 7.65 9H12V12H3V3H6V6C7.375 4.175 9.1 2.71875 11.175 1.63125C13.25 0.54375 15.525 0 18 0C20.075 0 22.025 0.39375 23.85 1.18125C25.675 1.96875 27.2625 3.0375 28.6125 4.3875C29.9625 5.7375 31.0312 7.325 31.8188 9.15C32.6063 10.975 33 12.925 33 15C33 17.075 32.6063 19.025 31.8188 20.85C31.0312 22.675 29.9625 24.2625 28.6125 25.6125C27.2625 26.9625 25.675 28.0312 23.85 28.8188C22.025 29.6063 20.075 30 18 30ZM15 21C14.575 21 14.2188 20.8563 13.9312 20.5688C13.6437 20.2812 13.5 19.925 13.5 19.5V15C13.5 14.575 13.6437 14.2188 13.9312 13.9312C14.2188 13.6437 14.575 13.5 15 13.5V12C15 11.175 15.2938 10.4688 15.8813 9.88125C16.4688 9.29375 17.175 9 18 9C18.825 9 19.5312 9.29375 20.1187 9.88125C20.7062 10.4688 21 11.175 21 12V13.5C21.425 13.5 21.7812 13.6437 22.0688 13.9312C22.3563 14.2188 22.5 14.575 22.5 15V19.5C22.5 19.925 22.3563 20.2812 22.0688 20.5688C21.7812 20.8563 21.425 21 21 21H15ZM16.5 13.5H19.5V12C19.5 11.575 19.3563 11.2188 19.0688 10.9312C18.7812 10.6437 18.425 10.5 18 10.5C17.575 10.5 17.2188 10.6437 16.9312 10.9312C16.6437 11.2188 16.5 11.575 16.5 12V13.5Z" fill="#00327D"/>
</svg>
